<?xml version="1.0" encoding="utf-8"?>
<!-- Generator: Adobe Illustrator 16.0.0, SVG Export Plug-In . SVG Version: 6.00 Build 0)  -->
<!DOCTYPE svg PUBLIC "-//W3C//DTD SVG 1.1//EN" "http://www.w3.org/Graphics/SVG/1.1/DTD/svg11.dtd">
<svg version="1.1" id="Calque_1" xmlns="http://www.w3.org/2000/svg" xmlns:xlink="http://www.w3.org/1999/xlink" x="0px" y="0px"
	 width="220px" height="28.667px" viewBox="0 0 220 28.667" enable-background="new 0 0 220 28.667" xml:space="preserve">
<g opacity="0.2">
	<path fill="#E64722" d="M5.027,20.606l-0.04-0.02c-0.24-0.08-0.43-0.21-0.57-0.39c-0.14-0.18-0.244-0.383-0.31-0.61
		c-0.067-0.227-0.104-0.463-0.11-0.71C3.99,18.63,4,18.4,4.027,18.187c0.04-0.32,0.113-0.653,0.22-1
		c0.147-0.44,0.34-0.867,0.58-1.28c0.36-0.6,0.747-1.173,1.16-1.72c0.413-0.546,0.887-1.053,1.42-1.52
		c0.146-0.133,0.3-0.26,0.46-0.38c0.16-0.12,0.327-0.24,0.5-0.36c0.253-0.16,0.51-0.313,0.77-0.46c0.26-0.146,0.537-0.273,0.83-0.38
		c0.24-0.093,0.483-0.187,0.73-0.28c0.247-0.093,0.503-0.14,0.77-0.14c0.12,0.014,0.243,0.027,0.37,0.04
		c0.126,0.013,0.25,0.04,0.37,0.08c0.187,0.053,0.316,0.16,0.39,0.32s0.163,0.313,0.27,0.46c-0.013-0.026,0.017-0.097,0.09-0.21
		c0.073-0.113,0.123-0.183,0.15-0.21c0.08-0.133,0.2-0.233,0.36-0.3c0.2-0.08,0.423-0.113,0.67-0.1s0.483,0.013,0.71,0
		c0.107,0,0.213-0.023,0.32-0.07c0.106-0.046,0.213-0.036,0.32,0.03c0.066,0.04,0.106,0.093,0.12,0.16
		c0.013,0.067,0.006,0.13-0.02,0.19c-0.027,0.06-0.06,0.124-0.1,0.19c-0.04,0.067-0.073,0.12-0.1,0.16
		c-0.414,0.613-0.8,1.237-1.16,1.87c-0.36,0.634-0.727,1.27-1.1,1.91c-0.107,0.187-0.213,0.374-0.32,0.56
		c-0.107,0.187-0.22,0.374-0.34,0.56c-0.24,0.387-0.494,0.787-0.76,1.2c-0.267,0.414-0.454,0.854-0.56,1.32
		c-0.027,0.08-0.04,0.173-0.04,0.28c0,0.107,0.053,0.187,0.16,0.24c0.08,0.04,0.173,0.043,0.28,0.01
		c0.106-0.033,0.213-0.086,0.32-0.16c0.106-0.073,0.207-0.15,0.3-0.23c0.093-0.08,0.167-0.14,0.22-0.18
		c0.293-0.28,0.573-0.56,0.84-0.84c0.266-0.28,0.533-0.573,0.8-0.88c0.227-0.267,0.446-0.533,0.66-0.8
		c0.213-0.267,0.413-0.547,0.6-0.84c0.027-0.04,0.063-0.096,0.11-0.17c0.046-0.073,0.1-0.133,0.16-0.18s0.12-0.073,0.18-0.08
		s0.117,0.03,0.17,0.11c0.04,0.067,0.05,0.137,0.03,0.21c-0.02,0.074-0.054,0.147-0.1,0.22c-0.047,0.073-0.097,0.14-0.15,0.2
		c-0.054,0.06-0.1,0.11-0.14,0.15c-0.133,0.16-0.26,0.327-0.38,0.5c-0.12,0.173-0.253,0.34-0.4,0.5
		c-0.093,0.133-0.19,0.26-0.29,0.38c-0.1,0.12-0.204,0.24-0.31,0.36c-0.24,0.28-0.483,0.557-0.73,0.83
		c-0.247,0.273-0.497,0.543-0.75,0.81c-0.174,0.187-0.39,0.39-0.65,0.61c-0.26,0.22-0.537,0.4-0.83,0.54
		c-0.293,0.14-0.587,0.217-0.88,0.23c-0.293,0.014-0.56-0.1-0.8-0.34c-0.227-0.213-0.37-0.473-0.43-0.78
		c-0.06-0.307-0.057-0.606,0.01-0.9c0.026-0.066,0.053-0.133,0.08-0.2c0.026-0.066,0.033-0.133,0.02-0.2
		c-0.067,0.013-0.13,0.057-0.19,0.13c-0.06,0.074-0.117,0.137-0.17,0.19c-0.107,0.094-0.203,0.187-0.29,0.28s-0.177,0.193-0.27,0.3
		c-0.413,0.44-0.88,0.807-1.4,1.1c-0.267,0.16-0.567,0.283-0.9,0.37C5.653,20.683,5.333,20.686,5.027,20.606z M6.867,19.207
		c0.36-0.173,0.683-0.396,0.97-0.67c0.287-0.273,0.557-0.563,0.81-0.87c0.426-0.533,0.833-1.077,1.22-1.63s0.747-1.13,1.08-1.73
		c0.146-0.267,0.293-0.533,0.44-0.8c0.146-0.267,0.273-0.546,0.38-0.84c0.053-0.173,0.097-0.36,0.13-0.56
		c0.033-0.2-0.01-0.38-0.13-0.54c-0.146-0.187-0.34-0.253-0.58-0.2c-0.24,0.053-0.447,0.126-0.62,0.22
		c-0.48,0.267-0.91,0.633-1.29,1.1s-0.73,0.92-1.05,1.36c-0.187,0.24-0.36,0.487-0.52,0.74c-0.16,0.253-0.327,0.507-0.5,0.76
		c-0.174,0.253-0.333,0.514-0.48,0.78c-0.147,0.267-0.293,0.54-0.44,0.82c-0.053,0.12-0.117,0.253-0.19,0.4
		c-0.073,0.147-0.137,0.3-0.19,0.46c-0.053,0.16-0.09,0.317-0.11,0.47s0.003,0.297,0.07,0.43c0.106,0.227,0.247,0.356,0.42,0.39
		C6.46,19.33,6.653,19.3,6.867,19.207z"/>
	<path fill="#E64722" d="M15.807,20.586c-0.24-0.08-0.453-0.223-0.64-0.43c-0.187-0.207-0.333-0.443-0.44-0.71
		c-0.106-0.266-0.177-0.556-0.21-0.87s-0.01-0.623,0.07-0.93c0.013-0.066,0.026-0.13,0.04-0.19c0.013-0.06,0.026-0.103,0.04-0.13
		c0.12-0.52,0.3-1.02,0.54-1.5c0.24-0.48,0.493-0.947,0.76-1.4c0.267-0.466,0.533-0.93,0.8-1.39s0.54-0.917,0.82-1.37
		c0.6-0.973,1.2-1.94,1.8-2.9s1.193-1.927,1.78-2.9c0.146-0.24,0.276-0.487,0.39-0.74c0.113-0.253,0.177-0.526,0.19-0.82
		c0.013-0.173,0.037-0.277,0.07-0.31c0.033-0.033,0.123-0.063,0.27-0.09c0.066,0,0.16-0.007,0.28-0.02s0.247-0.027,0.38-0.04
		c0.12-0.027,0.24-0.043,0.36-0.05c0.12-0.006,0.2-0.017,0.24-0.03c0.04,0,0.093-0.003,0.16-0.01c0.066-0.006,0.133-0.023,0.2-0.05
		c0.267-0.053,0.443-0.033,0.53,0.06c0.086,0.093,0.12,0.23,0.1,0.41c-0.02,0.18-0.08,0.39-0.18,0.63
		c-0.1,0.24-0.207,0.47-0.32,0.69c-0.114,0.22-0.224,0.42-0.33,0.6c-0.107,0.18-0.18,0.303-0.22,0.37
		c-0.12,0.227-0.243,0.46-0.37,0.7c-0.127,0.24-0.264,0.467-0.41,0.68c-0.12,0.2-0.257,0.403-0.41,0.61
		c-0.153,0.207-0.297,0.423-0.43,0.65c-0.2,0.347-0.397,0.687-0.59,1.02c-0.193,0.333-0.403,0.667-0.63,1
		c-0.133,0.173-0.247,0.387-0.34,0.64c0.026-0.08,0.093-0.16,0.2-0.24s0.22-0.153,0.34-0.22c0.12-0.067,0.243-0.126,0.37-0.18
		c0.127-0.053,0.223-0.093,0.29-0.12c0.24-0.106,0.49-0.183,0.75-0.23c0.26-0.046,0.517-0.037,0.77,0.03
		c0.373,0.107,0.65,0.293,0.83,0.56s0.296,0.573,0.35,0.92c0.053,0.347,0.057,0.7,0.01,1.06c-0.047,0.36-0.103,0.68-0.17,0.96
		c-0.213,0.92-0.62,1.78-1.22,2.58c-0.6,0.8-1.273,1.493-2.02,2.08c-0.387,0.307-0.807,0.577-1.26,0.81
		c-0.453,0.233-0.914,0.443-1.38,0.63c-0.307,0.12-0.664,0.203-1.07,0.25C16.49,20.703,16.127,20.679,15.807,20.586z M17.427,19.807
		c0.427-0.187,0.787-0.453,1.08-0.8c0.293-0.346,0.573-0.693,0.84-1.04c0.387-0.506,0.747-1.026,1.08-1.56
		c0.333-0.533,0.64-1.087,0.92-1.66c0.08-0.173,0.17-0.36,0.27-0.56s0.19-0.407,0.27-0.62c0.08-0.213,0.14-0.426,0.18-0.64
		c0.04-0.213,0.053-0.42,0.04-0.62c-0.014-0.146-0.08-0.283-0.2-0.41c-0.12-0.126-0.267-0.19-0.44-0.19
		c-0.227,0-0.45,0.067-0.67,0.2c-0.22,0.133-0.434,0.3-0.64,0.5c-0.207,0.2-0.397,0.407-0.57,0.62c-0.173,0.213-0.32,0.4-0.44,0.56
		c-0.347,0.427-0.67,0.867-0.97,1.32s-0.597,0.913-0.89,1.38c-0.267,0.4-0.507,0.827-0.72,1.28c-0.213,0.454-0.327,0.927-0.34,1.42
		c-0.027,0.374,0.09,0.637,0.35,0.79C16.837,19.93,17.12,19.94,17.427,19.807z"/>
	<path fill="#E64722" d="M24.727,20.667c-0.32-0.04-0.63-0.143-0.93-0.31c-0.3-0.167-0.523-0.403-0.67-0.71
		c-0.134-0.293-0.207-0.6-0.22-0.92c-0.013-0.32,0.007-0.633,0.06-0.94s0.146-0.646,0.28-1.02c0.227-0.573,0.5-1.123,0.82-1.65
		c0.32-0.527,0.693-1.017,1.12-1.47c0.426-0.453,0.88-0.887,1.36-1.3s1-0.767,1.56-1.06c0.28-0.146,0.586-0.273,0.92-0.38
		c0.56-0.16,1.12-0.233,1.68-0.22c0.093,0.013,0.203,0.027,0.33,0.04s0.25,0.037,0.37,0.07c0.12,0.034,0.23,0.08,0.33,0.14
		s0.177,0.137,0.23,0.23c0.053,0.107,0.093,0.207,0.12,0.3c0.026,0.094,0.026,0.2,0,0.32c-0.054,0.227-0.147,0.43-0.28,0.61
		s-0.26,0.363-0.38,0.55c-0.093,0.134-0.19,0.28-0.29,0.44c-0.1,0.16-0.243,0.233-0.43,0.22c-0.093,0-0.157-0.026-0.19-0.08
		c-0.033-0.053-0.057-0.12-0.07-0.2c-0.014-0.08-0.014-0.16,0-0.24c0.013-0.08,0.02-0.153,0.02-0.22
		c0.013-0.187,0.01-0.38-0.01-0.58c-0.02-0.2-0.09-0.387-0.21-0.56c-0.16-0.2-0.343-0.273-0.55-0.22
		c-0.207,0.054-0.41,0.16-0.61,0.32c-0.2,0.16-0.384,0.343-0.55,0.55c-0.167,0.207-0.297,0.363-0.39,0.47
		c-0.494,0.56-0.94,1.157-1.34,1.79s-0.78,1.277-1.14,1.93c-0.16,0.307-0.307,0.627-0.44,0.96c-0.133,0.333-0.173,0.68-0.12,1.04
		c0.04,0.36,0.183,0.587,0.43,0.68s0.523,0.113,0.83,0.06s0.613-0.15,0.92-0.29s0.54-0.27,0.7-0.39c0.146-0.106,0.29-0.22,0.43-0.34
		c0.14-0.12,0.283-0.24,0.43-0.36c0.106-0.106,0.217-0.213,0.33-0.32c0.113-0.106,0.223-0.213,0.33-0.32
		c0.12-0.133,0.243-0.263,0.37-0.39c0.126-0.126,0.25-0.256,0.37-0.39c0.24-0.267,0.477-0.53,0.71-0.79
		c0.233-0.26,0.443-0.536,0.63-0.83c0.066-0.133,0.126-0.27,0.18-0.41s0.153-0.243,0.3-0.31c0.106-0.053,0.187-0.046,0.24,0.02
		c0.053,0.067,0.073,0.147,0.06,0.24c-0.013,0.147-0.057,0.277-0.13,0.39c-0.073,0.114-0.15,0.224-0.23,0.33
		c-0.213,0.307-0.43,0.613-0.65,0.92c-0.22,0.307-0.463,0.594-0.73,0.86c-0.467,0.48-0.944,0.957-1.43,1.43
		c-0.487,0.474-0.997,0.917-1.53,1.33c-0.16,0.12-0.32,0.237-0.48,0.35c-0.16,0.113-0.333,0.203-0.52,0.27
		c-0.187,0.08-0.37,0.153-0.55,0.22c-0.18,0.067-0.377,0.114-0.59,0.14H24.727z"/>
	<path fill="#E64722" d="M31.187,20.667c-0.586-0.106-0.967-0.373-1.14-0.8c-0.173-0.427-0.223-0.903-0.15-1.43
		c0.073-0.526,0.213-1.05,0.42-1.57c0.207-0.52,0.396-0.94,0.57-1.26c0.427-0.773,0.97-1.493,1.63-2.16
		c0.66-0.667,1.35-1.247,2.07-1.74c0.213-0.146,0.466-0.3,0.76-0.46c0.293-0.16,0.597-0.29,0.91-0.39
		c0.313-0.1,0.626-0.153,0.94-0.16c0.313-0.006,0.597,0.077,0.85,0.25c0.12,0.08,0.22,0.147,0.3,0.2s0.153,0.08,0.22,0.08
		c0.066,0,0.133-0.03,0.2-0.09c0.067-0.06,0.153-0.157,0.26-0.29c0.187-0.24,0.353-0.497,0.5-0.77
		c0.146-0.273,0.293-0.543,0.44-0.81c0.24-0.427,0.483-0.856,0.73-1.29c0.247-0.433,0.497-0.863,0.75-1.29
		c0.133-0.227,0.27-0.447,0.41-0.66c0.14-0.213,0.263-0.44,0.37-0.68c0.053-0.107,0.097-0.217,0.13-0.33
		c0.033-0.113,0.063-0.237,0.09-0.37c0.013-0.093,0.017-0.197,0.01-0.31s0.023-0.21,0.09-0.29c0.093-0.106,0.207-0.176,0.34-0.21
		c0.133-0.033,0.276-0.053,0.43-0.06c0.153-0.006,0.303-0.003,0.45,0.01c0.146,0.013,0.28,0.007,0.4-0.02
		c0.2-0.04,0.394-0.067,0.58-0.08s0.307,0.12,0.36,0.4c0.04,0.2,0.033,0.4-0.02,0.6c-0.054,0.2-0.13,0.397-0.23,0.59
		c-0.1,0.193-0.21,0.377-0.33,0.55s-0.24,0.34-0.36,0.5c-0.267,0.373-0.513,0.76-0.74,1.16c-0.227,0.4-0.454,0.8-0.68,1.2
		c-0.373,0.707-0.757,1.397-1.15,2.07c-0.394,0.674-0.803,1.344-1.23,2.01c-0.427,0.68-0.827,1.363-1.2,2.05
		c-0.373,0.687-0.753,1.37-1.14,2.05c-0.16,0.267-0.307,0.537-0.44,0.81c-0.134,0.273-0.253,0.557-0.36,0.85
		c-0.067,0.16-0.107,0.32-0.12,0.48c0,0.134,0.05,0.207,0.15,0.22s0.203,0.007,0.31-0.02c0.307-0.106,0.573-0.27,0.8-0.49
		c0.227-0.22,0.453-0.443,0.68-0.67c0.227-0.24,0.457-0.477,0.69-0.71c0.233-0.233,0.463-0.483,0.69-0.75
		c0.16-0.187,0.313-0.383,0.46-0.59c0.146-0.207,0.28-0.423,0.4-0.65c0.067-0.107,0.126-0.22,0.18-0.34
		c0.053-0.12,0.133-0.227,0.24-0.32c0.08-0.066,0.173-0.1,0.28-0.1c0.106,0,0.167,0.074,0.18,0.22c0.013,0.08,0,0.157-0.04,0.23
		c-0.04,0.073-0.08,0.144-0.12,0.21c-0.107,0.213-0.23,0.423-0.37,0.63c-0.14,0.207-0.283,0.403-0.43,0.59
		c-0.493,0.64-1.02,1.257-1.58,1.85c-0.56,0.594-1.147,1.15-1.76,1.67c-0.147,0.134-0.303,0.244-0.47,0.33
		c-0.167,0.087-0.35,0.15-0.55,0.19c-0.227,0.04-0.473,0.054-0.74,0.04c-0.267-0.013-0.494-0.113-0.68-0.3
		c-0.133-0.133-0.227-0.293-0.28-0.48c-0.054-0.187-0.08-0.373-0.08-0.56c0-0.026,0.006-0.097,0.02-0.21
		c0.013-0.113,0.026-0.23,0.04-0.35c0.013-0.12,0.033-0.28,0.06-0.48c-0.04,0-0.073,0.027-0.1,0.08
		c-0.014,0.027-0.047,0.07-0.1,0.13c-0.054,0.06-0.113,0.124-0.18,0.19c-0.2,0.227-0.403,0.45-0.61,0.67
		c-0.207,0.22-0.427,0.427-0.66,0.62c-0.233,0.193-0.48,0.36-0.74,0.5c-0.26,0.14-0.55,0.237-0.87,0.29
		C31.7,20.686,31.453,20.693,31.187,20.667z M32.127,19.506c0.426-0.146,0.796-0.383,1.11-0.71c0.313-0.327,0.617-0.663,0.91-1.01
		c0.4-0.48,0.786-0.973,1.16-1.48c0.373-0.507,0.713-1.04,1.02-1.6c0.093-0.16,0.197-0.34,0.31-0.54s0.217-0.407,0.31-0.62
		c0.093-0.213,0.17-0.426,0.23-0.64s0.083-0.42,0.07-0.62c-0.013-0.146-0.077-0.283-0.19-0.41c-0.113-0.126-0.25-0.203-0.41-0.23
		c-0.227-0.013-0.457,0.043-0.69,0.17c-0.233,0.127-0.457,0.284-0.67,0.47s-0.413,0.383-0.6,0.59
		c-0.187,0.207-0.347,0.383-0.48,0.53c-0.373,0.413-0.723,0.836-1.05,1.27c-0.327,0.434-0.65,0.87-0.97,1.31
		c-0.28,0.387-0.543,0.8-0.79,1.24c-0.247,0.44-0.39,0.914-0.43,1.42c-0.04,0.36,0.063,0.624,0.31,0.79
		c0.247,0.167,0.523,0.19,0.83,0.07H32.127z"/>
	<path fill="#E64722" d="M42.067,20.667c-0.347-0.026-0.667-0.126-0.96-0.3c-0.387-0.227-0.647-0.513-0.78-0.86
		c-0.134-0.346-0.19-0.716-0.17-1.11c0.02-0.393,0.093-0.787,0.22-1.18c0.126-0.393,0.263-0.743,0.41-1.05
		c0.36-0.827,0.81-1.597,1.35-2.31c0.54-0.713,1.19-1.336,1.95-1.87c0.467-0.333,0.977-0.616,1.53-0.85
		c0.553-0.233,1.116-0.383,1.69-0.45c0.626-0.066,1.033,0.073,1.22,0.42c0.2,0.36,0.287,0.71,0.26,1.05
		c-0.027,0.34-0.13,0.66-0.31,0.96c-0.18,0.3-0.42,0.58-0.72,0.84c-0.3,0.26-0.62,0.5-0.96,0.72c-0.34,0.22-0.683,0.41-1.03,0.57
		c-0.347,0.16-0.653,0.293-0.92,0.4c-0.307,0.12-0.583,0.227-0.83,0.32c-0.247,0.094-0.463,0.207-0.65,0.34
		c-0.187,0.133-0.35,0.303-0.49,0.51c-0.14,0.207-0.257,0.477-0.35,0.81c-0.067,0.213-0.097,0.423-0.09,0.63
		c0.006,0.207,0.053,0.397,0.14,0.57c0.086,0.173,0.21,0.31,0.37,0.41c0.16,0.1,0.374,0.15,0.64,0.15c0.253,0,0.5-0.047,0.74-0.14
		c0.24-0.093,0.466-0.213,0.68-0.36c0.213-0.147,0.417-0.31,0.61-0.49c0.193-0.18,0.37-0.363,0.53-0.55
		c0.387-0.427,0.763-0.867,1.13-1.32c0.367-0.453,0.71-0.913,1.03-1.38c0.026-0.04,0.077-0.13,0.15-0.27s0.15-0.267,0.23-0.38
		s0.16-0.18,0.24-0.2c0.08-0.02,0.14,0.063,0.18,0.25c0.053,0.227-0.003,0.457-0.17,0.69c-0.167,0.233-0.317,0.43-0.45,0.59
		c-0.347,0.427-0.683,0.867-1.01,1.32c-0.327,0.454-0.67,0.887-1.03,1.3c-0.36,0.414-0.757,0.793-1.19,1.14
		c-0.433,0.347-0.917,0.627-1.45,0.84c-0.28,0.107-0.563,0.184-0.85,0.23C42.67,20.703,42.374,20.707,42.067,20.667z M43.747,15.387
		c0.106-0.027,0.223-0.073,0.35-0.14c0.126-0.066,0.203-0.106,0.23-0.12c0.386-0.227,0.75-0.5,1.09-0.82
		c0.34-0.32,0.643-0.653,0.91-1c0.16-0.2,0.313-0.427,0.46-0.68c0.146-0.253,0.227-0.513,0.24-0.78
		c0.013-0.107-0.017-0.21-0.09-0.31s-0.17-0.137-0.29-0.11c-0.16,0.04-0.32,0.137-0.48,0.29c-0.16,0.154-0.293,0.284-0.4,0.39
		c-0.08,0.093-0.16,0.184-0.24,0.27c-0.08,0.087-0.153,0.17-0.22,0.25c-0.213,0.267-0.42,0.53-0.62,0.79s-0.394,0.53-0.58,0.81
		c-0.027,0.04-0.083,0.127-0.17,0.26c-0.087,0.134-0.167,0.273-0.24,0.42c-0.073,0.146-0.117,0.27-0.13,0.37
		S43.614,15.414,43.747,15.387z"/>
	<path fill="#E64722" d="M38.747,26.747c-0.293-0.027-0.567-0.084-0.82-0.17c-0.253-0.087-0.493-0.237-0.72-0.45
		c-0.146-0.134-0.267-0.3-0.36-0.5s-0.16-0.394-0.2-0.58c-0.04-0.213-0.006-0.42,0.1-0.62c0.107-0.2,0.25-0.359,0.43-0.479
		c0.18-0.12,0.377-0.193,0.59-0.221c0.213-0.026,0.413,0.027,0.6,0.16c0.187,0.134,0.276,0.287,0.27,0.46
		c-0.007,0.174-0.037,0.351-0.09,0.53s-0.093,0.354-0.12,0.521c-0.027,0.166,0.033,0.303,0.18,0.409
		c0.347,0.24,0.72,0.323,1.12,0.25s0.79-0.229,1.17-0.47s0.727-0.52,1.04-0.84c0.313-0.32,0.563-0.613,0.75-0.88
		c0.733-1.094,1.466-2.174,2.2-3.24c0.733-1.066,1.446-2.16,2.14-3.28c0.333-0.52,0.657-1.05,0.97-1.59
		c0.313-0.54,0.61-1.09,0.89-1.65c0.133-0.253,0.273-0.497,0.42-0.73c0.146-0.233,0.293-0.47,0.44-0.71
		c0.013-0.026,0.053-0.097,0.12-0.21c0.066-0.113,0.13-0.237,0.19-0.37c0.06-0.133,0.113-0.25,0.16-0.35
		c0.047-0.1,0.063-0.15,0.05-0.15c-0.014,0-0.06,0.003-0.14,0.01s-0.173,0.01-0.28,0.01c-0.414,0.027-0.674,0.007-0.78-0.06
		c-0.107-0.066-0.107-0.213,0-0.44c0.053-0.133,0.143-0.213,0.27-0.24c0.126-0.027,0.41-0.047,0.85-0.06h0.72
		c0.12-0.133,0.243-0.26,0.37-0.38c0.126-0.12,0.243-0.253,0.35-0.4c0.36-0.48,0.72-0.953,1.08-1.42
		c0.36-0.466,0.736-0.92,1.13-1.36c0.393-0.44,0.81-0.856,1.25-1.25c0.44-0.393,0.913-0.757,1.42-1.09
		c0.347-0.227,0.707-0.447,1.08-0.66c0.373-0.213,0.773-0.347,1.2-0.4c0.133-0.013,0.287-0.033,0.46-0.06
		c0.173-0.027,0.34-0.033,0.5-0.02s0.303,0.053,0.43,0.12c0.127,0.067,0.223,0.187,0.29,0.36c0.053,0.147,0.07,0.293,0.05,0.44
		c-0.02,0.147-0.063,0.29-0.13,0.43c-0.067,0.14-0.147,0.273-0.24,0.4c-0.093,0.127-0.187,0.237-0.28,0.33
		c-0.054,0.067-0.137,0.15-0.25,0.25c-0.114,0.1-0.23,0.183-0.35,0.25s-0.233,0.097-0.34,0.09c-0.106-0.006-0.18-0.09-0.22-0.25
		c-0.027-0.08-0.03-0.167-0.01-0.26c0.02-0.093,0.037-0.18,0.05-0.26c0.026-0.187,0.02-0.36-0.02-0.52s-0.173-0.253-0.4-0.28
		c-0.267-0.04-0.514,0.033-0.74,0.22c-0.227,0.187-0.427,0.367-0.6,0.54c-0.187,0.2-0.38,0.403-0.58,0.61
		c-0.2,0.207-0.38,0.424-0.54,0.65c-0.267,0.387-0.517,0.783-0.75,1.19c-0.233,0.407-0.483,0.803-0.75,1.19
		c-0.094,0.147-0.184,0.29-0.27,0.43c-0.087,0.14-0.177,0.284-0.27,0.43c-0.147,0.227-0.233,0.394-0.26,0.5
		c-0.027,0.107,0.113,0.173,0.42,0.2c0.12,0,0.29-0.013,0.51-0.04c0.22-0.027,0.376,0.007,0.47,0.1
		c0.147,0.146,0.193,0.263,0.14,0.35c-0.053,0.087-0.157,0.154-0.31,0.2c-0.153,0.047-0.343,0.083-0.57,0.11
		c-0.227,0.027-0.447,0.05-0.66,0.07s-0.4,0.043-0.56,0.07c-0.16,0.027-0.253,0.073-0.28,0.14c-0.014,0.027-0.037,0.07-0.07,0.13
		c-0.034,0.06-0.063,0.124-0.09,0.19c-0.347,0.52-0.66,1.06-0.94,1.62c-0.28,0.56-0.573,1.113-0.88,1.66
		c-0.32,0.574-0.644,1.144-0.97,1.71s-0.663,1.13-1.01,1.69c-0.627,0.987-1.307,1.977-2.04,2.97c-0.733,0.993-1.554,1.87-2.46,2.63
		c-0.347,0.293-0.744,0.583-1.19,0.87c-0.447,0.287-0.91,0.54-1.39,0.76c-0.48,0.221-0.974,0.394-1.48,0.521
		C39.7,26.703,39.213,26.759,38.747,26.747z"/>
	<path fill="#E64722" d="M46.787,26.787c-0.267-0.054-0.54-0.147-0.82-0.28c-0.267-0.12-0.477-0.307-0.63-0.56
		c-0.153-0.254-0.236-0.521-0.25-0.8c-0.013-0.28,0.047-0.54,0.18-0.78s0.36-0.407,0.68-0.5c0.2-0.054,0.4-0.04,0.6,0.04
		c0.2,0.08,0.36,0.196,0.48,0.35c0.12,0.153,0.18,0.327,0.18,0.521c0,0.192-0.093,0.376-0.28,0.55c-0.08,0.066-0.113,0.14-0.1,0.22
		s0.043,0.153,0.09,0.22c0.047,0.067,0.107,0.131,0.18,0.19s0.137,0.104,0.19,0.13c0.253,0.133,0.52,0.196,0.8,0.19
		c0.28-0.007,0.56-0.061,0.84-0.16c0.28-0.101,0.55-0.228,0.81-0.38c0.26-0.153,0.483-0.304,0.67-0.45
		c0.64-0.493,1.183-1.067,1.63-1.72c0.447-0.654,0.87-1.32,1.27-2c0.093-0.174,0.223-0.388,0.39-0.641
		c0.167-0.253,0.326-0.496,0.48-0.73c0.153-0.233,0.276-0.433,0.37-0.6s0.113-0.243,0.06-0.23c-0.12,0.053-0.247,0.133-0.38,0.24
		c-0.147,0.147-0.307,0.273-0.48,0.38c-0.12,0.08-0.24,0.157-0.36,0.23c-0.12,0.074-0.247,0.144-0.38,0.21
		c-0.227,0.107-0.49,0.18-0.79,0.22c-0.3,0.04-0.563,0.02-0.79-0.06c-0.48-0.187-0.793-0.48-0.94-0.88
		c-0.147-0.4-0.194-0.836-0.14-1.31c0.053-0.473,0.17-0.943,0.35-1.41c0.18-0.466,0.35-0.866,0.51-1.2
		c0.253-0.52,0.557-1.003,0.91-1.45c0.353-0.446,0.743-0.87,1.17-1.27c0.253-0.24,0.523-0.483,0.81-0.73
		c0.287-0.247,0.586-0.47,0.9-0.67c0.313-0.2,0.64-0.37,0.98-0.51c0.34-0.14,0.69-0.23,1.05-0.27c0.146-0.013,0.34-0.03,0.58-0.05
		c0.24-0.02,0.477-0.02,0.71,0s0.44,0.077,0.62,0.17c0.18,0.094,0.29,0.253,0.33,0.48c0.013,0.067,0.037,0.097,0.07,0.09
		s0.073-0.03,0.12-0.07s0.09-0.086,0.13-0.14s0.067-0.087,0.08-0.1c0.16-0.187,0.363-0.297,0.61-0.33
		c0.246-0.033,0.483-0.057,0.71-0.07c0.093,0,0.207-0.007,0.34-0.02s0.26-0.01,0.38,0.01s0.223,0.06,0.31,0.12
		c0.086,0.06,0.13,0.157,0.13,0.29c0,0.267-0.08,0.507-0.24,0.72c-0.16,0.213-0.313,0.414-0.46,0.6c-0.187,0.227-0.354,0.46-0.5,0.7
		c-0.147,0.24-0.293,0.48-0.44,0.72c-0.36,0.6-0.724,1.19-1.09,1.77s-0.743,1.164-1.13,1.75c-0.2,0.333-0.403,0.66-0.61,0.98
		c-0.207,0.32-0.417,0.647-0.63,0.98c-0.213,0.32-0.417,0.64-0.61,0.96s-0.403,0.64-0.63,0.96c-0.293,0.439-0.604,0.88-0.93,1.319
		c-0.327,0.44-0.673,0.86-1.04,1.261c-0.367,0.399-0.76,0.77-1.18,1.109s-0.87,0.637-1.35,0.891c-0.68,0.347-1.413,0.609-2.2,0.79
		C48.32,26.957,47.546,26.959,46.787,26.787z M53.407,19.307c0.16-0.067,0.323-0.16,0.49-0.28c0.167-0.12,0.327-0.243,0.48-0.37
		c0.153-0.127,0.287-0.247,0.4-0.36c0.113-0.113,0.203-0.196,0.27-0.25c0.333-0.307,0.617-0.64,0.85-1
		c0.233-0.36,0.477-0.713,0.73-1.06c0.2-0.267,0.396-0.546,0.59-0.84c0.193-0.293,0.383-0.586,0.57-0.88
		c0.146-0.227,0.273-0.46,0.38-0.7c0.106-0.24,0.193-0.493,0.26-0.76c0.04-0.133,0.063-0.283,0.07-0.45
		c0.007-0.167-0.01-0.316-0.05-0.45s-0.114-0.237-0.22-0.31c-0.107-0.073-0.26-0.083-0.46-0.03c-0.387,0.107-0.747,0.313-1.08,0.62
		c-0.333,0.307-0.633,0.6-0.9,0.88c-0.293,0.307-0.573,0.633-0.84,0.98c-0.267,0.347-0.52,0.693-0.76,1.04
		c-0.253,0.374-0.49,0.75-0.71,1.13c-0.22,0.38-0.43,0.764-0.63,1.15c-0.054,0.106-0.113,0.233-0.18,0.38
		c-0.067,0.147-0.124,0.3-0.17,0.46c-0.047,0.16-0.077,0.317-0.09,0.47c-0.014,0.154,0.013,0.29,0.08,0.41
		c0.106,0.187,0.24,0.287,0.4,0.3C53.046,19.4,53.22,19.374,53.407,19.307z"/>
	<path fill="#E64722" d="M64.586,20.686c-0.053-0.013-0.107-0.026-0.16-0.04c-0.054-0.013-0.114-0.033-0.18-0.06
		c-0.44-0.213-0.687-0.493-0.74-0.84s-0.007-0.717,0.14-1.11c0.146-0.394,0.34-0.777,0.58-1.15c0.24-0.373,0.433-0.693,0.58-0.96
		c0.307-0.52,0.633-1.023,0.98-1.51s0.667-0.997,0.96-1.53c0.093-0.187,0.2-0.403,0.32-0.65c0.12-0.247,0.133-0.483,0.04-0.71
		c-0.067-0.16-0.18-0.233-0.34-0.22s-0.333,0.063-0.52,0.15c-0.187,0.087-0.363,0.187-0.53,0.3c-0.167,0.113-0.284,0.197-0.35,0.25
		c-0.347,0.267-0.657,0.574-0.93,0.92c-0.273,0.347-0.543,0.7-0.81,1.06c-0.093,0.133-0.187,0.26-0.28,0.38
		c-0.094,0.12-0.18,0.253-0.26,0.4c-0.32,0.507-0.643,1.003-0.97,1.49c-0.327,0.487-0.644,0.983-0.95,1.49
		c-0.093,0.146-0.184,0.29-0.27,0.43c-0.087,0.14-0.17,0.284-0.25,0.43c-0.107,0.187-0.193,0.377-0.26,0.57
		c-0.067,0.193-0.167,0.377-0.3,0.55c-0.027,0.027-0.057,0.057-0.09,0.09s-0.063,0.063-0.09,0.09c-0.027,0.014-0.04,0.023-0.04,0.03
		s-0.014,0.017-0.04,0.03c-0.067,0.027-0.14,0.047-0.22,0.06c-0.08,0.014-0.153,0.027-0.22,0.04c-0.2,0.026-0.4,0.043-0.6,0.05
		s-0.4,0.003-0.6-0.01c-0.16,0-0.32-0.021-0.48-0.06c-0.066-0.026-0.103-0.106-0.11-0.24s0.023-0.253,0.09-0.36
		c0.133-0.24,0.264-0.48,0.39-0.72c0.127-0.24,0.263-0.473,0.41-0.7c0.453-0.72,0.903-1.44,1.35-2.16
		c0.447-0.72,0.89-1.446,1.33-2.18c0.133-0.213,0.26-0.423,0.38-0.63c0.12-0.207,0.247-0.423,0.38-0.65
		c0.267-0.426,0.53-0.86,0.79-1.3c0.26-0.44,0.523-0.887,0.79-1.34c0.414-0.707,0.83-1.403,1.25-2.09
		c0.42-0.687,0.837-1.376,1.25-2.07c0.253-0.4,0.467-0.793,0.64-1.18c0.067-0.133,0.12-0.263,0.16-0.39
		c0.04-0.127,0.073-0.257,0.1-0.39c0.026-0.146,0.063-0.237,0.11-0.27c0.046-0.033,0.183-0.05,0.41-0.05
		c0.08,0,0.183-0.003,0.31-0.01c0.126-0.006,0.243-0.017,0.35-0.03c0.307-0.04,0.55-0.07,0.73-0.09c0.18-0.02,0.317-0.03,0.41-0.03
		s0.153,0.013,0.18,0.04c0.026,0.027,0.046,0.06,0.06,0.1c0.08,0.267,0.06,0.53-0.06,0.79c-0.12,0.26-0.233,0.503-0.34,0.73
		c-0.2,0.4-0.42,0.78-0.66,1.14c-0.134,0.187-0.253,0.383-0.36,0.59c-0.106,0.207-0.22,0.403-0.34,0.59
		c-0.267,0.414-0.527,0.817-0.78,1.21c-0.253,0.394-0.507,0.803-0.76,1.23c-0.08,0.107-0.15,0.22-0.21,0.34
		c-0.06,0.12-0.124,0.24-0.19,0.36c-0.227,0.32-0.447,0.673-0.66,1.06c-0.027,0.027-0.04,0.054-0.04,0.08
		c0.04-0.026,0.073-0.053,0.1-0.08c0.027-0.026,0.053-0.053,0.08-0.08c0.053-0.027,0.1-0.057,0.14-0.09
		c0.04-0.033,0.08-0.063,0.12-0.09c0.213-0.16,0.437-0.313,0.67-0.46c0.233-0.146,0.47-0.267,0.71-0.36
		c0.146-0.067,0.303-0.11,0.47-0.13s0.33-0.043,0.49-0.07c0.227-0.026,0.46-0.02,0.7,0.02c0.24,0.04,0.44,0.147,0.6,0.32
		c0.253,0.28,0.387,0.583,0.4,0.91s-0.037,0.657-0.15,0.99c-0.113,0.333-0.263,0.657-0.45,0.97c-0.187,0.313-0.347,0.597-0.48,0.85
		c-0.187,0.307-0.37,0.604-0.55,0.89c-0.18,0.287-0.363,0.583-0.55,0.89c-0.147,0.227-0.297,0.45-0.45,0.67
		c-0.153,0.22-0.303,0.444-0.45,0.67c-0.134,0.2-0.257,0.43-0.37,0.69c-0.114,0.26-0.157,0.51-0.13,0.75
		c0.187,0.067,0.37,0.057,0.55-0.03c0.18-0.086,0.343-0.183,0.49-0.29c0.147-0.106,0.3-0.22,0.46-0.34
		c0.16-0.12,0.313-0.24,0.46-0.36c0.6-0.533,1.16-1.133,1.68-1.8c0.16-0.2,0.317-0.403,0.47-0.61c0.153-0.207,0.303-0.423,0.45-0.65
		c0.067-0.08,0.137-0.183,0.21-0.31c0.073-0.126,0.15-0.216,0.23-0.27c0.08-0.053,0.153-0.063,0.22-0.03
		c0.066,0.033,0.113,0.087,0.14,0.16c0.026,0.074,0.037,0.147,0.03,0.22s-0.043,0.124-0.11,0.15c-0.213,0.333-0.394,0.604-0.54,0.81
		c-0.147,0.207-0.297,0.417-0.45,0.63c-0.153,0.213-0.27,0.367-0.35,0.46c-0.174,0.187-0.34,0.377-0.5,0.57
		c-0.16,0.193-0.327,0.383-0.5,0.57c-0.054,0.067-0.1,0.124-0.14,0.17c-0.04,0.047-0.087,0.097-0.14,0.15
		c-0.36,0.36-0.74,0.72-1.14,1.08c-0.4,0.36-0.833,0.66-1.3,0.9c-0.227,0.107-0.483,0.187-0.77,0.24
		C65.129,20.759,64.853,20.753,64.586,20.686z"/>
	<path fill="#E64722" d="M69.766,20.586c-0.227-0.08-0.427-0.24-0.6-0.48c-0.12-0.187-0.2-0.403-0.24-0.65
		c-0.04-0.247-0.053-0.477-0.04-0.69c0.053-0.4,0.163-0.787,0.33-1.16c0.167-0.373,0.343-0.733,0.53-1.08
		c0.32-0.6,0.667-1.176,1.04-1.73c0.373-0.553,0.733-1.123,1.08-1.71c0.146-0.227,0.29-0.457,0.43-0.69
		c0.14-0.233,0.223-0.49,0.25-0.77c0.013-0.093,0.03-0.19,0.05-0.29s0.063-0.183,0.13-0.25c0.146-0.146,0.37-0.233,0.67-0.26
		c0.3-0.027,0.543-0.047,0.73-0.06c0.093-0.013,0.2-0.023,0.32-0.03c0.12-0.006,0.233,0,0.34,0.02c0.106,0.02,0.2,0.06,0.28,0.12
		c0.08,0.06,0.126,0.157,0.14,0.29c0.013,0.173-0.01,0.35-0.07,0.53c-0.06,0.18-0.14,0.354-0.24,0.52
		c-0.1,0.167-0.21,0.333-0.33,0.5c-0.12,0.167-0.22,0.317-0.3,0.45c-0.387,0.6-0.767,1.2-1.14,1.8c-0.374,0.6-0.74,1.214-1.1,1.84
		c-0.027,0.053-0.083,0.15-0.17,0.29c-0.087,0.14-0.18,0.3-0.28,0.48c-0.1,0.18-0.197,0.367-0.29,0.56s-0.157,0.373-0.19,0.54
		c-0.033,0.167-0.027,0.304,0.02,0.41c0.046,0.107,0.15,0.16,0.31,0.16c0.173,0.013,0.343-0.023,0.51-0.11
		c0.167-0.087,0.327-0.197,0.48-0.33s0.297-0.277,0.43-0.43s0.253-0.29,0.36-0.41c0.347-0.373,0.67-0.76,0.97-1.16
		s0.583-0.813,0.85-1.24c0.04-0.08,0.093-0.2,0.16-0.36s0.14-0.316,0.22-0.47c0.08-0.153,0.173-0.276,0.28-0.37
		c0.107-0.093,0.227-0.113,0.36-0.06c0.12,0.053,0.143,0.193,0.07,0.42c-0.073,0.227-0.21,0.5-0.41,0.82
		c-0.2,0.32-0.437,0.667-0.71,1.04c-0.273,0.374-0.543,0.724-0.81,1.05s-0.503,0.61-0.71,0.85c-0.207,0.24-0.343,0.394-0.41,0.46
		c-0.16,0.16-0.374,0.354-0.64,0.58c-0.267,0.227-0.55,0.437-0.85,0.63c-0.3,0.193-0.61,0.336-0.93,0.43
		C70.326,20.679,70.033,20.679,69.766,20.586z M75.566,7.946c-0.187-0.093-0.33-0.23-0.43-0.41c-0.1-0.18-0.13-0.39-0.09-0.63
		c0.04-0.213,0.133-0.427,0.28-0.64c0.146-0.213,0.313-0.387,0.5-0.52c0.213-0.173,0.467-0.26,0.76-0.26
		c0.44,0,0.727,0.213,0.86,0.64c0.04,0.173,0.043,0.354,0.01,0.54c-0.033,0.187-0.093,0.367-0.18,0.54
		c-0.087,0.173-0.2,0.327-0.34,0.46c-0.14,0.133-0.29,0.233-0.45,0.3c-0.16,0.067-0.32,0.097-0.48,0.09
		C75.846,8.05,75.699,8.013,75.566,7.946z"/>
	<path fill="#E64722" d="M65.766,25.466c-0.36-0.054-0.71-0.149-1.05-0.29c-0.34-0.14-0.597-0.383-0.77-0.729
		c-0.08-0.16-0.134-0.337-0.16-0.53s-0.013-0.384,0.04-0.57c0.053-0.173,0.153-0.333,0.3-0.479c0.146-0.147,0.31-0.257,0.49-0.33
		c0.18-0.073,0.363-0.097,0.55-0.07s0.353,0.127,0.5,0.3c0.133,0.16,0.213,0.354,0.24,0.58c0,0.146-0.023,0.301-0.07,0.46
		c-0.047,0.16-0.097,0.233-0.15,0.221c-0.12-0.027-0.187,0.036-0.2,0.189c-0.014,0.153,0.033,0.297,0.14,0.431
		c0.107,0.133,0.27,0.213,0.49,0.239c0.22,0.026,0.403,0.04,0.55,0.04c0.253,0,0.483-0.033,0.69-0.1
		c0.207-0.067,0.423-0.153,0.65-0.26c0.346-0.147,0.683-0.334,1.01-0.561s0.61-0.493,0.85-0.8c0.347-0.413,0.683-0.83,1.01-1.25
		s0.637-0.85,0.93-1.29c0.307-0.44,0.603-0.893,0.89-1.36c0.287-0.467,0.57-0.933,0.85-1.4c0.16-0.267,0.323-0.533,0.49-0.8
		c0.167-0.267,0.33-0.533,0.49-0.8c0.227-0.347,0.44-0.7,0.64-1.06c0.2-0.36,0.393-0.727,0.58-1.1c0.187-0.32,0.373-0.64,0.56-0.96
		c0.187-0.32,0.367-0.646,0.54-0.98c0.106-0.16,0.183-0.33,0.23-0.51c0.046-0.18,0.11-0.356,0.19-0.53
		c0.053-0.12,0.123-0.207,0.21-0.26c0.086-0.053,0.187-0.087,0.3-0.1c0.113-0.013,0.227-0.017,0.34-0.01
		c0.113,0.007,0.223,0.01,0.33,0.01c0.16,0,0.326-0.027,0.5-0.08c0.173-0.053,0.333-0.053,0.48,0c0.133,0.04,0.22,0.11,0.26,0.21
		s0.05,0.213,0.03,0.34c-0.02,0.127-0.054,0.25-0.1,0.37c-0.047,0.12-0.09,0.22-0.13,0.3c-0.227,0.467-0.477,0.924-0.75,1.37
		c-0.273,0.447-0.543,0.897-0.81,1.35c-0.187,0.32-0.37,0.644-0.55,0.97c-0.18,0.327-0.37,0.65-0.57,0.97
		c-0.387,0.627-0.767,1.244-1.14,1.85c-0.374,0.607-0.747,1.217-1.12,1.83c-0.347,0.547-0.717,1.07-1.11,1.57
		c-0.394,0.5-0.823,0.97-1.29,1.409c-0.253,0.254-0.527,0.487-0.82,0.7c-0.56,0.387-1.14,0.713-1.74,0.98
		c-0.6,0.267-1.24,0.439-1.92,0.52c-0.187,0.026-0.38,0.04-0.58,0.04c-0.2,0-0.393,0-0.58,0c-0.12,0-0.244,0-0.37,0
		C66.009,25.506,65.886,25.493,65.766,25.466z M79.926,7.907c-0.173-0.093-0.31-0.227-0.41-0.4c-0.1-0.173-0.13-0.373-0.09-0.6
		c0.04-0.213,0.133-0.423,0.28-0.63c0.146-0.207,0.3-0.37,0.46-0.49c0.213-0.173,0.467-0.26,0.76-0.26c0.426,0,0.7,0.207,0.82,0.62
		c0.04,0.173,0.046,0.35,0.02,0.53c-0.027,0.18-0.087,0.354-0.18,0.52c-0.093,0.167-0.203,0.313-0.33,0.44
		c-0.127,0.126-0.27,0.223-0.43,0.29C80.506,8.06,80.206,8.053,79.926,7.907z"/>
	<path fill="#E64722" d="M76.066,20.667c-0.146-0.013-0.237-0.057-0.27-0.13c-0.033-0.073-0.04-0.16-0.02-0.26
		c0.02-0.1,0.057-0.203,0.11-0.31c0.053-0.106,0.1-0.193,0.14-0.26c0.16-0.28,0.33-0.553,0.51-0.82s0.356-0.533,0.53-0.8
		c0.253-0.387,0.497-0.787,0.73-1.2c0.233-0.414,0.463-0.82,0.69-1.22c0.48-0.84,0.977-1.667,1.49-2.48
		c0.513-0.813,1.01-1.64,1.49-2.48c0.133-0.24,0.267-0.48,0.4-0.72c0.133-0.24,0.267-0.473,0.4-0.7c0.28-0.467,0.553-0.933,0.82-1.4
		s0.553-0.927,0.86-1.38c0.12-0.187,0.247-0.373,0.38-0.56c0.133-0.187,0.24-0.386,0.32-0.6c0.08-0.187,0.133-0.383,0.16-0.59
		c0.026-0.207,0.1-0.39,0.22-0.55c0.08-0.093,0.17-0.163,0.27-0.21c0.1-0.047,0.207-0.073,0.32-0.08
		c0.113-0.006,0.227-0.01,0.34-0.01s0.223-0.013,0.33-0.04c0.066-0.013,0.157-0.033,0.27-0.06s0.23-0.047,0.35-0.06
		c0.12-0.013,0.233-0.017,0.34-0.01c0.106,0.007,0.187,0.043,0.24,0.11c0.066,0.08,0.093,0.157,0.08,0.23s-0.027,0.15-0.04,0.23
		c-0.053,0.413-0.18,0.793-0.38,1.14c-0.2,0.347-0.4,0.694-0.6,1.04c-0.173,0.307-0.353,0.604-0.54,0.89
		c-0.187,0.287-0.367,0.577-0.54,0.87c-0.347,0.587-0.69,1.16-1.03,1.72c-0.34,0.56-0.677,1.127-1.01,1.7
		c-0.12,0.2-0.24,0.394-0.36,0.58c-0.12,0.187-0.24,0.38-0.36,0.58c-0.107,0.173-0.2,0.367-0.28,0.58s-0.193,0.393-0.34,0.54
		c0.107-0.106,0.217-0.2,0.33-0.28s0.223-0.167,0.33-0.26c0.066-0.053,0.123-0.1,0.17-0.14s0.103-0.086,0.17-0.14
		c0.107-0.08,0.207-0.157,0.3-0.23c0.093-0.073,0.193-0.15,0.3-0.23c0.173-0.133,0.347-0.267,0.52-0.4s0.347-0.273,0.52-0.42
		c0.173-0.16,0.363-0.323,0.57-0.49c0.207-0.167,0.42-0.32,0.64-0.46c0.22-0.14,0.45-0.25,0.69-0.33
		c0.24-0.08,0.487-0.106,0.74-0.08c0.24,0.027,0.42,0.097,0.54,0.21c0.12,0.114,0.19,0.253,0.21,0.42c0.02,0.167,0,0.343-0.06,0.53
		c-0.06,0.187-0.137,0.36-0.23,0.52c-0.107,0.173-0.244,0.337-0.41,0.49c-0.167,0.153-0.357,0.217-0.57,0.19
		c-0.187-0.013-0.35-0.08-0.49-0.2c-0.14-0.12-0.29-0.213-0.45-0.28c-0.213-0.067-0.414-0.06-0.6,0.02
		c-0.187,0.08-0.367,0.18-0.54,0.3c-0.213,0.147-0.417,0.303-0.61,0.47c-0.193,0.167-0.397,0.33-0.61,0.49
		c-0.04,0.027-0.083,0.057-0.13,0.09c-0.047,0.034-0.09,0.07-0.13,0.11c0.453-0.053,0.863,0.017,1.23,0.21s0.643,0.51,0.83,0.95
		c0.12,0.293,0.163,0.574,0.13,0.84s-0.117,0.527-0.25,0.78c-0.133,0.253-0.287,0.497-0.46,0.73c-0.173,0.233-0.34,0.463-0.5,0.69
		c-0.04,0.054-0.09,0.127-0.15,0.22s-0.114,0.19-0.16,0.29c-0.047,0.1-0.077,0.197-0.09,0.29c-0.014,0.093,0.006,0.18,0.06,0.26
		c0.08,0.107,0.187,0.153,0.32,0.14s0.273-0.05,0.42-0.11c0.146-0.06,0.287-0.137,0.42-0.23s0.233-0.167,0.3-0.22
		c0.227-0.173,0.43-0.373,0.61-0.6c0.18-0.227,0.35-0.46,0.51-0.7c0.16-0.24,0.316-0.487,0.47-0.74c0.153-0.253,0.31-0.5,0.47-0.74
		c0.013-0.04,0.083-0.14,0.21-0.3c0.126-0.16,0.263-0.327,0.41-0.5c0.147-0.173,0.287-0.316,0.42-0.43
		c0.133-0.113,0.22-0.143,0.26-0.09c0.04,0.067,0.043,0.153,0.01,0.26c-0.034,0.107-0.077,0.22-0.13,0.34s-0.113,0.233-0.18,0.34
		c-0.067,0.107-0.114,0.18-0.14,0.22c-0.147,0.293-0.31,0.573-0.49,0.84c-0.18,0.267-0.37,0.534-0.57,0.8
		c-0.64,0.84-1.347,1.58-2.12,2.22c-0.2,0.173-0.43,0.343-0.69,0.51c-0.26,0.167-0.527,0.3-0.8,0.4c-0.273,0.1-0.554,0.15-0.84,0.15
		s-0.557-0.08-0.81-0.24c-0.267-0.16-0.44-0.35-0.52-0.57c-0.08-0.22-0.107-0.453-0.08-0.7c0.026-0.247,0.097-0.49,0.21-0.73
		c0.113-0.24,0.243-0.46,0.39-0.66c0.133-0.173,0.286-0.367,0.46-0.58c0.173-0.213,0.326-0.433,0.46-0.66
		c0.133-0.227,0.233-0.46,0.3-0.7c0.066-0.24,0.053-0.48-0.04-0.72c-0.027-0.066-0.05-0.14-0.07-0.22
		c-0.02-0.08-0.05-0.14-0.09-0.18c-0.067-0.066-0.15-0.093-0.25-0.08c-0.1,0.014-0.197,0.034-0.29,0.06
		c-0.427,0.107-0.8,0.3-1.12,0.58c-0.28,0.28-0.51,0.597-0.69,0.95c-0.18,0.354-0.364,0.704-0.55,1.05
		c-0.146,0.267-0.303,0.537-0.47,0.81c-0.167,0.273-0.33,0.543-0.49,0.81c-0.147,0.253-0.29,0.517-0.43,0.79
		c-0.14,0.273-0.31,0.523-0.51,0.75c-0.093,0.107-0.193,0.174-0.3,0.2c-0.107,0.027-0.233,0.04-0.38,0.04l-0.26,0.04
		c-0.014,0-0.073,0-0.18,0s-0.223,0-0.35,0c-0.127,0-0.257-0.004-0.39-0.01C76.213,20.69,76.12,20.679,76.066,20.667z"/>
	<path fill="#E64722" d="M96.746,3.687c0.147,0.027,0.243,0.08,0.29,0.16c0.047,0.08,0.07,0.193,0.07,0.34
		c-0.014,0.173-0.034,0.347-0.06,0.52c-0.027,0.173-0.087,0.333-0.18,0.48c-0.8,1.28-1.58,2.56-2.34,3.84
		c-0.507,0.854-1.037,1.69-1.59,2.51c-0.554,0.82-1.083,1.657-1.59,2.51c-0.093,0.16-0.183,0.32-0.27,0.48
		c-0.087,0.16-0.183,0.313-0.29,0.46c-0.213,0.36-0.423,0.72-0.63,1.08c-0.207,0.36-0.423,0.72-0.65,1.08
		c-0.067,0.107-0.157,0.244-0.27,0.41s-0.217,0.34-0.31,0.52c-0.093,0.18-0.157,0.357-0.19,0.53c-0.033,0.173-0.003,0.32,0.09,0.44
		c0.08,0.107,0.19,0.16,0.33,0.16s0.263-0.02,0.37-0.06c0.28-0.12,0.546-0.296,0.8-0.53s0.487-0.457,0.7-0.67
		c0.32-0.346,0.617-0.71,0.89-1.09c0.273-0.38,0.543-0.77,0.81-1.17c0.026-0.04,0.096-0.157,0.21-0.35
		c0.113-0.193,0.24-0.376,0.38-0.55s0.273-0.297,0.4-0.37c0.126-0.073,0.21-0.003,0.25,0.21c0.026,0.12,0.01,0.247-0.05,0.38
		c-0.06,0.134-0.134,0.27-0.22,0.41c-0.087,0.14-0.184,0.273-0.29,0.4c-0.107,0.127-0.187,0.23-0.24,0.31
		c-0.387,0.573-0.793,1.13-1.22,1.67s-0.914,1.03-1.46,1.47c-0.36,0.307-0.704,0.573-1.03,0.8c-0.327,0.227-0.724,0.407-1.19,0.54
		c-0.093,0.027-0.18,0.043-0.26,0.05s-0.167,0.01-0.26,0.01c-0.253-0.026-0.49-0.12-0.71-0.28c-0.22-0.16-0.376-0.36-0.47-0.6
		c-0.12-0.347-0.15-0.72-0.09-1.12c0.06-0.4,0.167-0.796,0.32-1.19c0.153-0.393,0.333-0.773,0.54-1.14
		c0.207-0.367,0.396-0.696,0.57-0.99c0.32-0.56,0.657-1.104,1.01-1.63c0.353-0.526,0.696-1.063,1.03-1.61
		c0.36-0.586,0.71-1.17,1.05-1.75c0.34-0.58,0.684-1.163,1.03-1.75c0.333-0.56,0.69-1.113,1.07-1.66c0.38-0.546,0.71-1.113,0.99-1.7
		c0.08-0.16,0.146-0.323,0.2-0.49c0.053-0.167,0.1-0.336,0.14-0.51c0.066-0.2,0.167-0.327,0.3-0.38
		c0.133-0.053,0.293-0.073,0.48-0.06c0.146,0,0.283-0.007,0.41-0.02c0.126-0.013,0.263-0.033,0.41-0.06
		c0.106-0.027,0.223-0.046,0.35-0.06C96.503,3.653,96.626,3.66,96.746,3.687z"/>
	<path fill="#E64722" d="M90.167,20.646c-0.067-0.026-0.11-0.066-0.13-0.12c-0.02-0.053-0.017-0.14,0.01-0.26
		c0.013-0.24,0.106-0.46,0.28-0.66c0.173-0.2,0.327-0.393,0.46-0.58c0.56-0.8,1.076-1.62,1.55-2.46c0.473-0.84,0.963-1.68,1.47-2.52
		c0.213-0.347,0.437-0.693,0.67-1.04c0.233-0.346,0.403-0.72,0.51-1.12c0.04-0.147,0.07-0.3,0.09-0.46
		c0.02-0.16,0.11-0.273,0.27-0.34c0.187-0.093,0.383-0.13,0.59-0.11c0.207,0.02,0.403,0.017,0.59-0.01
		c0.146-0.026,0.32-0.046,0.52-0.06s0.36,0.047,0.48,0.18c0.08,0.107,0.106,0.227,0.08,0.36c-0.027,0.134-0.054,0.253-0.08,0.36
		c-0.027,0.08-0.06,0.157-0.1,0.23s-0.047,0.15-0.02,0.23c0-0.013,0.06-0.063,0.18-0.15s0.256-0.187,0.41-0.3
		c0.153-0.113,0.3-0.216,0.44-0.31c0.14-0.093,0.223-0.153,0.25-0.18c0.227-0.146,0.466-0.273,0.72-0.38
		c0.253-0.106,0.513-0.167,0.78-0.18c0.386-0.013,0.72,0.087,1,0.3c0.28,0.213,0.433,0.527,0.46,0.94c0,0.107-0.003,0.21-0.01,0.31
		s-0.01,0.204-0.01,0.31c0.066-0.053,0.12-0.1,0.16-0.14c0.04-0.04,0.076-0.076,0.11-0.11c0.033-0.033,0.057-0.05,0.07-0.05
		c0.12-0.146,0.253-0.28,0.4-0.4c0.253-0.253,0.547-0.473,0.88-0.66c0.24-0.133,0.49-0.24,0.75-0.32
		c0.26-0.08,0.523-0.133,0.79-0.16c0.266-0.027,0.5-0.027,0.7,0c0.2,0.027,0.393,0.133,0.58,0.32c0.053,0.054,0.1,0.097,0.14,0.13
		c0.04,0.034,0.08,0.083,0.12,0.15c0.107,0.267,0.15,0.553,0.13,0.86s-0.077,0.593-0.17,0.86c-0.187,0.507-0.42,0.99-0.7,1.45
		c-0.28,0.46-0.567,0.917-0.86,1.37c-0.187,0.307-0.38,0.614-0.58,0.92c-0.2,0.307-0.394,0.613-0.58,0.92
		c-0.04,0.067-0.11,0.173-0.21,0.32c-0.1,0.147-0.19,0.304-0.27,0.47s-0.137,0.327-0.17,0.48c-0.034,0.153-0.01,0.27,0.07,0.35
		c0.093,0.093,0.21,0.123,0.35,0.09s0.256-0.07,0.35-0.11c0.293-0.133,0.56-0.313,0.8-0.54c0.24-0.227,0.473-0.447,0.7-0.66
		c0.413-0.387,0.78-0.813,1.1-1.28c0.32-0.467,0.633-0.933,0.94-1.4c0.053-0.093,0.13-0.2,0.23-0.32c0.1-0.12,0.21-0.133,0.33-0.04
		c0.16,0.107,0.193,0.28,0.1,0.52c-0.093,0.24-0.23,0.49-0.41,0.75c-0.18,0.26-0.37,0.507-0.57,0.74c-0.2,0.233-0.333,0.39-0.4,0.47
		c-0.227,0.307-0.463,0.597-0.71,0.87c-0.247,0.273-0.517,0.53-0.81,0.77c-0.147,0.12-0.29,0.237-0.43,0.35
		c-0.14,0.113-0.283,0.23-0.43,0.35c-0.2,0.16-0.437,0.31-0.71,0.45c-0.273,0.14-0.56,0.24-0.86,0.3
		c-0.3,0.06-0.593,0.073-0.88,0.04c-0.287-0.034-0.543-0.15-0.77-0.35c-0.2-0.187-0.317-0.41-0.35-0.67
		c-0.033-0.26-0.013-0.523,0.06-0.79c0.073-0.266,0.173-0.53,0.3-0.79c0.126-0.26,0.243-0.483,0.35-0.67
		c0.187-0.346,0.37-0.687,0.55-1.02c0.18-0.333,0.376-0.653,0.59-0.96c0.187-0.28,0.38-0.553,0.58-0.82
		c0.2-0.267,0.38-0.546,0.54-0.84c0.093-0.16,0.177-0.323,0.25-0.49c0.073-0.167,0.123-0.343,0.15-0.53
		c0.027-0.12,0.033-0.243,0.02-0.37c-0.013-0.126-0.093-0.217-0.24-0.27c-0.147-0.066-0.31-0.05-0.49,0.05
		c-0.18,0.1-0.33,0.197-0.45,0.29c-0.56,0.414-1.047,0.924-1.46,1.53c-0.413,0.607-0.793,1.203-1.14,1.79
		c-0.414,0.68-0.813,1.354-1.2,2.02s-0.793,1.333-1.22,2c-0.094,0.133-0.18,0.27-0.26,0.41c-0.08,0.14-0.193,0.25-0.34,0.33
		c-0.12,0.054-0.25,0.087-0.39,0.1c-0.14,0.014-0.283,0.021-0.43,0.021c-0.067,0-0.16,0-0.28,0s-0.244-0.007-0.37-0.021
		c-0.127-0.013-0.243-0.033-0.35-0.06c-0.106-0.026-0.18-0.073-0.22-0.14c-0.054-0.066-0.074-0.143-0.06-0.23
		c0.013-0.086,0.04-0.173,0.08-0.26c0.04-0.086,0.083-0.17,0.13-0.25c0.046-0.08,0.09-0.146,0.13-0.2
		c0.52-0.84,1.03-1.683,1.53-2.53s1.003-1.703,1.51-2.57c0.027-0.053,0.117-0.213,0.27-0.48c0.153-0.267,0.293-0.546,0.42-0.84
		c0.127-0.293,0.207-0.553,0.24-0.78c0.033-0.227-0.057-0.327-0.27-0.3c-0.374,0.054-0.727,0.23-1.06,0.53
		c-0.333,0.3-0.627,0.583-0.88,0.85c-0.307,0.307-0.587,0.634-0.84,0.98s-0.5,0.7-0.74,1.06c-0.414,0.64-0.837,1.27-1.27,1.89
		c-0.434,0.62-0.843,1.264-1.23,1.93c-0.053,0.093-0.1,0.203-0.14,0.33c-0.04,0.126-0.09,0.253-0.15,0.38
		c-0.06,0.127-0.127,0.24-0.2,0.34s-0.17,0.17-0.29,0.21c-0.027,0-0.054,0.007-0.08,0.02c-0.027,0.014-0.054,0.027-0.08,0.04
		c-0.067,0.027-0.197,0.047-0.39,0.06c-0.193,0.013-0.397,0.02-0.61,0.02c-0.213,0-0.414,0-0.6,0
		C90.339,20.686,90.22,20.673,90.167,20.646z"/>
	<path fill="#E64722" d="M111.407,20.907c-0.16-0.014-0.317-0.04-0.471-0.08s-0.283-0.107-0.39-0.2
		c-0.173-0.16-0.29-0.333-0.35-0.52c-0.06-0.187-0.087-0.383-0.08-0.59c0.006-0.207,0.04-0.41,0.1-0.61
		c0.06-0.2,0.13-0.394,0.21-0.58c0.227-0.493,0.482-0.963,0.77-1.41s0.584-0.89,0.891-1.33c0.172-0.267,0.346-0.533,0.52-0.8
		s0.348-0.533,0.52-0.8c0.08-0.12,0.18-0.253,0.301-0.4c0.119-0.146,0.232-0.3,0.34-0.46s0.188-0.323,0.24-0.49
		c0.053-0.167,0.047-0.323-0.02-0.47c-0.068-0.133-0.164-0.2-0.291-0.2s-0.26,0.03-0.4,0.09c-0.139,0.06-0.275,0.137-0.41,0.23
		c-0.133,0.093-0.227,0.16-0.279,0.2c-0.254,0.187-0.486,0.39-0.699,0.61c-0.215,0.22-0.42,0.443-0.621,0.67l-0.66,0.78
		c-0.467,0.534-0.877,1.097-1.23,1.69c-0.354,0.594-0.723,1.19-1.11,1.79c-0.253,0.387-0.507,0.767-0.76,1.14
		c-0.253,0.374-0.513,0.74-0.78,1.1c-0.067,0.107-0.147,0.197-0.24,0.27s-0.207,0.117-0.34,0.13c-0.133,0.013-0.263,0.017-0.39,0.01
		c-0.126-0.007-0.257-0.01-0.39-0.01c-0.427,0-0.697-0.003-0.81-0.01s-0.19-0.023-0.23-0.05c-0.067-0.08-0.097-0.187-0.09-0.32
		s0.063-0.26,0.17-0.38c0.426-0.507,0.803-1.05,1.13-1.63c0.327-0.58,0.67-1.15,1.03-1.71c0.213-0.347,0.42-0.687,0.62-1.02
		c0.2-0.333,0.407-0.667,0.62-1c0.213-0.307,0.417-0.623,0.61-0.95s0.396-0.65,0.61-0.97c0.067-0.106,0.133-0.216,0.2-0.33
		c0.066-0.113,0.12-0.23,0.16-0.35c0.026-0.08,0.046-0.187,0.06-0.32c0.013-0.133,0.04-0.26,0.08-0.38s0.093-0.22,0.16-0.3
		c0.066-0.08,0.173-0.1,0.32-0.06c0.027,0.013,0.083,0.02,0.17,0.02c0.086,0,0.183-0.007,0.29-0.02
		c0.28-0.027,0.506-0.047,0.68-0.06c0.172-0.013,0.307-0.02,0.4-0.02c0.092,0,0.16,0.01,0.199,0.03s0.072,0.043,0.1,0.07
		c0.254,0.28,0.207,0.727-0.139,1.34c-0.041,0.067-0.068,0.117-0.08,0.15c-0.014,0.034-0.027,0.063-0.041,0.09l-0.02,0.04
		c0.039-0.08,0.117-0.156,0.23-0.23c0.113-0.073,0.203-0.143,0.27-0.21c0.105-0.08,0.207-0.156,0.299-0.23
		c0.094-0.073,0.193-0.143,0.301-0.21c0.268-0.173,0.541-0.327,0.82-0.46s0.572-0.233,0.879-0.3c0.201-0.04,0.414-0.05,0.64-0.03
		s0.438,0.074,0.631,0.16c0.193,0.087,0.355,0.21,0.49,0.37c0.133,0.16,0.205,0.367,0.219,0.62c0.027,0.467-0.049,0.907-0.23,1.32
		c-0.18,0.413-0.396,0.8-0.648,1.16c-0.281,0.4-0.564,0.797-0.851,1.19c-0.285,0.394-0.563,0.79-0.83,1.19
		c-0.387,0.547-0.727,1.106-1.02,1.68c-0.027,0.067-0.07,0.147-0.129,0.24c-0.061,0.093-0.111,0.193-0.15,0.3
		c-0.041,0.107-0.061,0.207-0.061,0.3s0.041,0.167,0.121,0.22c0.146,0.093,0.322,0.1,0.529,0.02s0.377-0.153,0.51-0.22
		c0.426-0.24,0.803-0.553,1.13-0.94c0.326-0.386,0.643-0.767,0.949-1.14c0.146-0.16,0.279-0.323,0.4-0.49
		c0.119-0.167,0.24-0.343,0.359-0.53c0.121-0.173,0.23-0.35,0.33-0.53c0.1-0.18,0.223-0.343,0.371-0.49
		c0.066-0.067,0.152-0.117,0.26-0.15c0.105-0.033,0.186,0.003,0.24,0.11c0.066,0.147,0.08,0.29,0.039,0.43
		c-0.039,0.14-0.107,0.28-0.199,0.42c-0.094,0.14-0.193,0.273-0.301,0.4c-0.107,0.127-0.199,0.237-0.279,0.33
		c-0.441,0.507-0.877,1.023-1.311,1.55c-0.434,0.527-0.91,1.003-1.429,1.43c-0.373,0.307-0.805,0.573-1.291,0.8
		C112.39,20.833,111.899,20.933,111.407,20.907z"/>
	<path fill="#E64722" d="M117.647,20.566c-0.414-0.106-0.779-0.313-1.1-0.62c-0.32-0.306-0.494-0.687-0.521-1.14
		c-0.012-0.253,0-0.517,0.041-0.79c0.039-0.273,0.094-0.537,0.16-0.79c0.094-0.453,0.252-0.907,0.48-1.36
		c0.453-0.894,1.053-1.7,1.799-2.42c0.414-0.386,0.826-0.74,1.24-1.06c0.254-0.2,0.523-0.394,0.811-0.58s0.582-0.353,0.891-0.5
		c0.305-0.146,0.619-0.267,0.939-0.36c0.32-0.093,0.646-0.146,0.98-0.16c0.373-0.013,0.738,0.04,1.1,0.16
		c0.307,0.12,0.559,0.333,0.76,0.64c0.279,0.44,0.393,0.894,0.34,1.36c-0.053,0.467-0.146,0.934-0.279,1.4
		c-0.254,0.933-0.66,1.827-1.221,2.68c-0.561,0.854-1.24,1.567-2.041,2.14c-0.492,0.347-1.033,0.66-1.619,0.94
		c-0.586,0.28-1.18,0.46-1.779,0.54c-0.16,0.014-0.324,0.017-0.49,0.01C117.969,20.65,117.807,20.62,117.647,20.566z
		 M119.307,19.526c0.492-0.213,0.922-0.52,1.289-0.92s0.697-0.813,0.99-1.24c0.107-0.147,0.203-0.293,0.291-0.44
		c0.086-0.146,0.176-0.293,0.27-0.44c0.227-0.36,0.436-0.733,0.629-1.12s0.377-0.773,0.551-1.16c0.107-0.28,0.207-0.546,0.301-0.8
		c0.092-0.253,0.152-0.533,0.18-0.84c0.014-0.173-0.01-0.363-0.07-0.57c-0.061-0.207-0.184-0.343-0.369-0.41
		c-0.24-0.066-0.475-0.026-0.701,0.12c-0.227,0.147-0.42,0.293-0.58,0.44c-0.186,0.187-0.373,0.363-0.561,0.53
		c-0.186,0.167-0.359,0.344-0.52,0.53c-0.346,0.374-0.666,0.767-0.959,1.18c-0.295,0.413-0.568,0.833-0.82,1.26
		c-0.227,0.374-0.434,0.757-0.621,1.15c-0.186,0.394-0.359,0.79-0.52,1.19c-0.08,0.2-0.15,0.447-0.209,0.74
		c-0.061,0.293-0.018,0.54,0.129,0.74c0.094,0.12,0.227,0.194,0.4,0.22c0.174,0.027,0.326,0.027,0.461,0
		C119,19.646,119.147,19.593,119.307,19.526z"/>
	<path fill="#E64722" d="M115.247,26.747c-0.268-0.04-0.518-0.113-0.75-0.22c-0.233-0.107-0.434-0.25-0.601-0.431
		c-0.166-0.18-0.282-0.39-0.35-0.63c-0.066-0.24-0.066-0.5,0-0.78c0.04-0.187,0.13-0.366,0.271-0.539
		c0.14-0.174,0.303-0.311,0.489-0.41c0.188-0.101,0.38-0.144,0.58-0.13c0.201,0.013,0.387,0.106,0.561,0.279
		c0.107,0.12,0.164,0.253,0.17,0.4c0.008,0.146-0.002,0.293-0.029,0.439c-0.027,0.134-0.08,0.273-0.16,0.421
		c-0.08,0.146-0.107,0.286-0.08,0.42c0.014,0.119,0.072,0.216,0.18,0.29c0.107,0.072,0.227,0.13,0.359,0.17
		c0.135,0.04,0.271,0.063,0.41,0.069c0.141,0.007,0.258,0.011,0.35,0.011c0.508-0.014,0.98-0.147,1.422-0.4
		c0.439-0.254,0.846-0.547,1.219-0.88c0.387-0.374,0.754-0.767,1.1-1.18c0.348-0.414,0.688-0.834,1.021-1.261
		c1.092-1.439,2.092-2.906,3-4.4c0.373-0.6,0.729-1.203,1.068-1.81c0.342-0.606,0.697-1.21,1.07-1.81
		c0.107-0.173,0.217-0.343,0.33-0.51c0.113-0.167,0.223-0.343,0.33-0.53c0.16-0.227,0.32-0.46,0.48-0.7
		c0.16-0.24,0.273-0.5,0.34-0.78c0.014-0.067,0.023-0.15,0.029-0.25c0.008-0.1,0.018-0.2,0.031-0.3c0.012-0.1,0.039-0.19,0.08-0.27
		c0.039-0.08,0.1-0.133,0.18-0.16s0.17-0.037,0.27-0.03c0.1,0.007,0.189,0.01,0.27,0.01c0.254,0,0.514-0.02,0.781-0.06
		c0.133-0.013,0.299-0.027,0.5-0.04c0.199-0.013,0.326,0.067,0.379,0.24c0.053,0.187,0.047,0.384-0.02,0.59s-0.133,0.39-0.199,0.55
		c0.105,0,0.205-0.046,0.299-0.14c0.094-0.093,0.18-0.173,0.26-0.24c0.107-0.106,0.221-0.203,0.34-0.29
		c0.121-0.086,0.248-0.17,0.381-0.25c0.293-0.187,0.604-0.323,0.93-0.41c0.326-0.086,0.664-0.097,1.01-0.03
		c0.373,0.067,0.66,0.247,0.861,0.54c0.199,0.293,0.332,0.607,0.398,0.94c0.066,0.427,0.061,0.854-0.02,1.28
		c-0.08,0.427-0.193,0.84-0.34,1.24c-0.107,0.267-0.223,0.527-0.35,0.78c-0.127,0.253-0.264,0.507-0.41,0.76
		c-0.293,0.467-0.609,0.923-0.949,1.37c-0.342,0.447-0.725,0.85-1.15,1.21c-0.508,0.44-1.08,0.817-1.721,1.13
		c-0.641,0.313-1.299,0.503-1.98,0.57c-0.186,0.014-0.369,0.014-0.549,0c-0.18-0.013-0.363-0.046-0.551-0.1
		c-0.293-0.066-0.572-0.207-0.84-0.42c-0.133-0.106-0.232-0.146-0.301-0.12c-0.066,0.027-0.146,0.107-0.238,0.24
		c-0.428,0.6-0.844,1.2-1.25,1.8c-0.408,0.6-0.871,1.152-1.391,1.66c-0.254,0.239-0.514,0.466-0.779,0.68
		c-0.268,0.213-0.533,0.427-0.801,0.64c-1.053,0.84-2.227,1.387-3.52,1.641c-0.188,0.04-0.371,0.069-0.551,0.09
		c-0.18,0.02-0.363,0.043-0.549,0.069C116.1,26.806,115.659,26.799,115.247,26.747z M127.907,19.727
		c0.307-0.146,0.59-0.323,0.85-0.53c0.26-0.207,0.496-0.437,0.709-0.69c0.521-0.613,0.994-1.26,1.42-1.94
		c0.428-0.68,0.814-1.38,1.16-2.1c0.08-0.173,0.174-0.363,0.281-0.57c0.105-0.207,0.195-0.42,0.27-0.64
		c0.072-0.22,0.123-0.437,0.15-0.65c0.025-0.213,0.006-0.42-0.061-0.62c-0.041-0.12-0.104-0.2-0.189-0.24
		c-0.088-0.04-0.18-0.053-0.281-0.04c-0.1,0.013-0.195,0.043-0.289,0.09c-0.094,0.047-0.18,0.097-0.26,0.15
		c-0.588,0.347-1.107,0.77-1.561,1.27s-0.873,1.03-1.26,1.59c-0.107,0.147-0.211,0.3-0.311,0.46c-0.1,0.16-0.203,0.313-0.311,0.46
		c-0.279,0.427-0.547,0.863-0.799,1.31c-0.254,0.447-0.5,0.897-0.74,1.35c-0.107,0.2-0.166,0.42-0.18,0.66
		c-0.014,0.24,0.072,0.447,0.26,0.62c0.146,0.147,0.326,0.213,0.539,0.2C127.52,19.854,127.719,19.807,127.907,19.727z"/>
	<path fill="#E64722" d="M133.407,26.707c-0.066-0.04-0.107-0.104-0.121-0.19s0.027-0.21,0.121-0.369
		c0.465-0.827,0.959-1.644,1.479-2.45c0.521-0.808,1.041-1.61,1.561-2.41c0.146-0.227,0.297-0.45,0.449-0.67
		c0.154-0.22,0.305-0.443,0.451-0.67c0.053-0.066,0.109-0.143,0.17-0.23c0.061-0.086,0.096-0.17,0.109-0.25
		c-0.119,0.027-0.232,0.094-0.34,0.2c-0.107,0.107-0.207,0.193-0.299,0.26c-0.254,0.187-0.555,0.337-0.9,0.45
		c-0.348,0.113-0.688,0.167-1.02,0.16c-0.334-0.007-0.639-0.093-0.91-0.26c-0.273-0.167-0.457-0.443-0.551-0.83
		c-0.066-0.266-0.1-0.56-0.1-0.88c0-0.32,0.027-0.613,0.08-0.88c0.08-0.626,0.27-1.18,0.57-1.66c0.299-0.48,0.643-0.966,1.029-1.46
		c0.373-0.48,0.779-0.917,1.221-1.31c0.439-0.393,0.898-0.77,1.379-1.13c0.227-0.16,0.484-0.323,0.77-0.49
		c0.287-0.167,0.588-0.313,0.9-0.44c0.314-0.126,0.627-0.227,0.939-0.3c0.314-0.073,0.617-0.103,0.91-0.09
		c0.268,0.013,0.48,0.087,0.641,0.22c0.16,0.134,0.334,0.293,0.52,0.48c0.094-0.12,0.236-0.25,0.43-0.39
		c0.193-0.14,0.371-0.223,0.531-0.25c0.146-0.027,0.287-0.037,0.42-0.03c0.133,0.007,0.273-0.003,0.42-0.03
		c0.133-0.013,0.301-0.04,0.5-0.08s0.359-0.013,0.48,0.08c0.092,0.067,0.137,0.157,0.129,0.27c-0.006,0.113-0.039,0.227-0.1,0.34
		s-0.131,0.224-0.209,0.33c-0.08,0.107-0.141,0.193-0.182,0.26c-0.16,0.227-0.322,0.46-0.49,0.7c-0.166,0.24-0.328,0.474-0.488,0.7
		c-0.988,1.453-1.932,2.923-2.83,4.41c-0.9,1.487-1.83,2.957-2.791,4.41c-0.266,0.427-0.533,0.851-0.799,1.271
		c-0.268,0.42-0.535,0.843-0.801,1.27c-0.16,0.267-0.301,0.547-0.42,0.841c-0.121,0.293-0.287,0.553-0.5,0.779
		c-0.188,0.2-0.387,0.313-0.6,0.34c-0.215,0.027-0.447,0.04-0.701,0.04c-0.146,0-0.332,0.011-0.559,0.03
		C133.678,26.817,133.512,26.787,133.407,26.707z M136.706,19.247c0.293-0.12,0.564-0.28,0.811-0.48c0.246-0.2,0.473-0.42,0.68-0.66
		c0.207-0.24,0.402-0.49,0.59-0.75c0.188-0.26,0.373-0.51,0.561-0.75c0.279-0.387,0.557-0.767,0.83-1.14
		c0.273-0.373,0.537-0.753,0.789-1.14c0.213-0.333,0.404-0.673,0.57-1.02s0.236-0.727,0.211-1.14c-0.014-0.307-0.102-0.49-0.26-0.55
		c-0.16-0.06-0.344-0.05-0.551,0.03s-0.416,0.197-0.631,0.35c-0.213,0.153-0.379,0.283-0.5,0.39c-0.559,0.467-1.066,0.987-1.52,1.56
		c-0.453,0.574-0.893,1.154-1.32,1.74c-0.199,0.267-0.387,0.543-0.559,0.83c-0.174,0.287-0.328,0.583-0.461,0.89
		c-0.039,0.12-0.086,0.253-0.141,0.4c-0.053,0.147-0.092,0.297-0.119,0.45c-0.027,0.154-0.037,0.307-0.029,0.46
		c0.006,0.154,0.043,0.29,0.109,0.41c0.105,0.173,0.246,0.253,0.42,0.24S136.532,19.313,136.706,19.247z"/>
	<path fill="#E64722" d="M139.627,20.466c-0.08-0.187-0.055-0.346,0.08-0.48c0.133-0.133,0.273-0.24,0.42-0.32
		c0.172-0.106,0.35-0.21,0.529-0.31s0.357-0.216,0.529-0.35c0.361-0.28,0.691-0.596,0.99-0.95c0.301-0.353,0.576-0.723,0.83-1.11
		c0.201-0.293,0.404-0.576,0.611-0.85c0.205-0.273,0.408-0.557,0.609-0.85c0.199-0.307,0.393-0.61,0.58-0.91
		c0.186-0.3,0.379-0.603,0.58-0.91c0.24-0.373,0.453-0.756,0.639-1.15c0.188-0.393,0.395-0.776,0.621-1.15
		c0.105-0.187,0.223-0.327,0.35-0.42s0.297-0.066,0.51,0.08c0.467,0.307,0.947,0.433,1.439,0.38c0.494-0.053,0.994-0.153,1.5-0.3
		c0.148-0.04,0.287-0.033,0.422,0.02c0.133,0.053,0.191,0.173,0.18,0.36c-0.014,0.187-0.102,0.363-0.26,0.53
		c-0.16,0.167-0.295,0.317-0.4,0.45c-0.16,0.187-0.314,0.37-0.461,0.55c-0.146,0.18-0.293,0.364-0.439,0.55
		c-0.588,0.787-1.113,1.58-1.58,2.38c-0.146,0.24-0.283,0.48-0.41,0.72c-0.127,0.24-0.244,0.48-0.35,0.72
		c-0.041,0.067-0.1,0.197-0.18,0.39s-0.146,0.397-0.201,0.61c-0.053,0.213-0.076,0.407-0.07,0.58c0.008,0.173,0.084,0.28,0.23,0.32
		s0.291,0.037,0.43-0.01c0.141-0.047,0.277-0.113,0.41-0.2c0.133-0.086,0.258-0.187,0.371-0.3s0.217-0.217,0.309-0.31
		c0.414-0.427,0.791-0.887,1.131-1.38s0.684-0.973,1.029-1.44c0.066-0.093,0.158-0.22,0.271-0.38c0.113-0.16,0.236-0.233,0.369-0.22
		c0.16,0.013,0.23,0.09,0.211,0.23c-0.021,0.14-0.078,0.293-0.17,0.46c-0.094,0.167-0.197,0.323-0.311,0.47
		c-0.113,0.147-0.189,0.24-0.23,0.28c-0.188,0.24-0.373,0.477-0.561,0.71c-0.186,0.233-0.373,0.463-0.559,0.69
		c-0.148,0.2-0.301,0.403-0.461,0.61c-0.16,0.207-0.32,0.404-0.48,0.59c-0.346,0.4-0.729,0.77-1.148,1.11s-0.904,0.563-1.451,0.67
		c-0.188,0.027-0.377,0.034-0.57,0.02c-0.193-0.013-0.369-0.053-0.529-0.12c-0.16-0.066-0.303-0.163-0.43-0.29
		c-0.127-0.126-0.217-0.29-0.27-0.49c-0.068-0.24-0.094-0.477-0.08-0.71c0.012-0.233,0.053-0.463,0.119-0.69s0.146-0.453,0.24-0.68
		c0.094-0.227,0.193-0.44,0.301-0.64c0.293-0.6,0.672-1.16,1.139-1.68s0.934-1.013,1.4-1.48c0.08-0.08,0.203-0.18,0.369-0.3
		c0.168-0.12,0.271-0.233,0.311-0.34c0.041-0.08,0.043-0.13,0.01-0.15s-0.08-0.03-0.139-0.03c-0.061,0-0.127,0.007-0.201,0.02
		c-0.072,0.014-0.129,0.02-0.17,0.02c-0.133,0-0.26-0.033-0.379-0.1c-0.121-0.066-0.248-0.113-0.381-0.14
		c-0.188-0.027-0.33,0.013-0.43,0.12c-0.1,0.107-0.197,0.233-0.291,0.38c-0.119,0.187-0.238,0.38-0.359,0.58
		c-0.119,0.2-0.24,0.4-0.359,0.6c-0.254,0.427-0.51,0.844-0.77,1.25c-0.262,0.407-0.537,0.81-0.83,1.21
		c-0.16,0.227-0.328,0.447-0.5,0.66c-0.174,0.213-0.354,0.427-0.541,0.64c-0.053,0.053-0.152,0.167-0.301,0.34
		c-0.146,0.173-0.322,0.367-0.529,0.58s-0.43,0.427-0.67,0.64s-0.467,0.393-0.68,0.54c-0.213,0.146-0.406,0.233-0.58,0.26
		C139.813,20.673,139.694,20.613,139.627,20.466z"/>
	<path fill="#E64722" d="M150.047,20.646h-0.02c-0.135-0.026-0.268-0.057-0.4-0.09c-0.135-0.033-0.258-0.083-0.371-0.15
		c-0.113-0.067-0.213-0.15-0.299-0.25c-0.088-0.1-0.15-0.223-0.191-0.37c-0.066-0.24-0.047-0.483,0.061-0.73s0.26-0.443,0.461-0.59
		c0.227-0.16,0.387-0.187,0.479-0.08c0.094,0.106,0.168,0.26,0.221,0.46c0.053,0.2,0.107,0.407,0.16,0.62
		c0.053,0.214,0.152,0.347,0.301,0.4c0.146,0.053,0.295,0.04,0.449-0.04c0.152-0.08,0.297-0.19,0.43-0.33s0.254-0.29,0.359-0.45
		c0.107-0.16,0.193-0.293,0.262-0.4c0.227-0.387,0.408-0.793,0.549-1.22c0.141-0.426,0.264-0.853,0.371-1.28
		c0.146-0.573,0.303-1.157,0.469-1.75c0.168-0.593,0.283-1.19,0.35-1.79c-0.066,0.04-0.133,0.107-0.199,0.2s-0.113,0.173-0.141,0.24
		c-0.08,0.107-0.16,0.204-0.24,0.29c-0.078,0.087-0.158,0.184-0.238,0.29c-0.148,0.187-0.285,0.377-0.41,0.57
		c-0.127,0.194-0.264,0.384-0.41,0.57c-0.268,0.347-0.543,0.71-0.83,1.09s-0.57,0.75-0.85,1.11c-0.254,0.307-0.508,0.627-0.762,0.96
		c-0.252,0.333-0.52,0.657-0.799,0.97c-0.279,0.313-0.57,0.61-0.871,0.89c-0.299,0.28-0.623,0.52-0.969,0.72
		c-0.08,0.067-0.188,0.12-0.32,0.16s-0.254,0.033-0.359-0.02c-0.068-0.04-0.107-0.093-0.121-0.16c-0.014-0.066-0.014-0.14,0-0.22
		s0.037-0.157,0.07-0.23s0.063-0.137,0.09-0.19c0.066-0.12,0.16-0.207,0.279-0.26c0.121-0.053,0.24-0.113,0.361-0.18
		c0.133-0.067,0.256-0.137,0.369-0.21c0.113-0.073,0.223-0.156,0.33-0.25c0.268-0.2,0.51-0.417,0.73-0.65
		c0.221-0.233,0.436-0.477,0.65-0.73c0.293-0.347,0.592-0.69,0.9-1.03c0.307-0.34,0.6-0.683,0.879-1.03
		c0.307-0.373,0.6-0.75,0.881-1.13c0.279-0.38,0.559-0.763,0.84-1.15c0.24-0.333,0.469-0.67,0.689-1.01
		c0.221-0.34,0.457-0.676,0.711-1.01c0.105-0.146,0.209-0.27,0.309-0.37s0.236-0.176,0.41-0.23c0.174-0.053,0.344-0.077,0.51-0.07
		c0.168,0.007,0.338,0.003,0.51-0.01c0.146-0.013,0.281-0.037,0.4-0.07c0.121-0.033,0.254-0.05,0.4-0.05
		c0.014,0,0.006,0.04-0.02,0.12c-0.027,0.08-0.057,0.167-0.09,0.26s-0.07,0.183-0.111,0.27c-0.039,0.087-0.059,0.137-0.059,0.15
		c-0.068,0.147-0.131,0.287-0.191,0.42c-0.059,0.133-0.109,0.273-0.148,0.42c-0.094,0.36-0.17,0.72-0.23,1.08
		s-0.123,0.72-0.189,1.08c-0.107,0.587-0.221,1.16-0.342,1.72c-0.119,0.56-0.299,1.114-0.539,1.66
		c-0.188,0.427-0.434,0.84-0.74,1.24c-0.307,0.4-0.652,0.747-1.039,1.04s-0.814,0.517-1.281,0.67S150.553,20.726,150.047,20.646z"/>
	<path fill="#E64722" d="M156.506,20.586c-0.188-0.053-0.373-0.153-0.561-0.3c-0.32-0.24-0.523-0.537-0.609-0.89
		c-0.086-0.353-0.107-0.723-0.061-1.11s0.143-0.767,0.291-1.14c0.146-0.373,0.299-0.7,0.459-0.98c0.506-0.947,1.051-1.88,1.631-2.8
		c0.58-0.92,1.189-1.813,1.83-2.68c0.199-0.24,0.359-0.467,0.479-0.68c0.041-0.08,0.084-0.173,0.131-0.28
		c0.047-0.106,0.117-0.18,0.209-0.22c-0.078-0.066-0.199-0.103-0.359-0.11c-0.16-0.006-0.313-0.013-0.459-0.02
		c-0.148-0.006-0.273-0.037-0.381-0.09s-0.146-0.16-0.119-0.32c0.025-0.146,0.102-0.247,0.229-0.3s0.268-0.083,0.42-0.09
		c0.154-0.007,0.307,0,0.461,0.02c0.152,0.02,0.277,0.023,0.369,0.01c0.188-0.026,0.354-0.093,0.5-0.2
		c0.146-0.107,0.281-0.237,0.4-0.39c0.121-0.153,0.227-0.313,0.32-0.48c0.094-0.167,0.18-0.323,0.26-0.47
		c0.146-0.267,0.291-0.533,0.43-0.8c0.141-0.267,0.271-0.54,0.391-0.82c0.039-0.106,0.08-0.23,0.119-0.37
		c0.041-0.14,0.084-0.28,0.131-0.42c0.047-0.14,0.1-0.273,0.16-0.4c0.061-0.126,0.137-0.23,0.23-0.31
		c0.105-0.08,0.232-0.133,0.379-0.16s0.301-0.04,0.461-0.04s0.32,0.007,0.48,0.02c0.158,0.013,0.305,0.007,0.439-0.02
		c0.16-0.027,0.34-0.043,0.539-0.05c0.201-0.006,0.354,0.083,0.461,0.27c0.066,0.134,0.07,0.284,0.01,0.45
		c-0.061,0.167-0.117,0.317-0.17,0.45c-0.107,0.307-0.25,0.6-0.43,0.88c-0.18,0.28-0.357,0.567-0.531,0.86
		c-0.186,0.32-0.406,0.65-0.66,0.99c-0.252,0.34-0.432,0.697-0.539,1.07c0.08,0.027,0.18,0.037,0.301,0.03
		c0.119-0.006,0.242-0.013,0.369-0.02c0.127-0.006,0.246-0.006,0.359,0c0.113,0.007,0.211,0.037,0.291,0.09
		c0.092,0.08,0.105,0.2,0.039,0.36s-0.146,0.267-0.24,0.32c-0.186,0.107-0.396,0.144-0.629,0.11c-0.234-0.033-0.451-0.043-0.65-0.03
		c-0.279,0-0.5,0.083-0.66,0.25c-0.16,0.167-0.307,0.364-0.439,0.59c-0.627,1.013-1.248,2.02-1.859,3.02
		c-0.615,1-1.262,1.993-1.941,2.98c-0.174,0.253-0.332,0.513-0.48,0.78c-0.146,0.267-0.252,0.547-0.318,0.84
		c-0.068,0.227-0.074,0.42-0.021,0.58c0.055,0.16,0.141,0.28,0.262,0.36c0.119,0.08,0.266,0.114,0.439,0.1
		c0.172-0.013,0.359-0.073,0.561-0.18c0.346-0.187,0.648-0.43,0.908-0.73c0.262-0.3,0.512-0.604,0.75-0.91
		c0.295-0.36,0.578-0.723,0.852-1.09c0.271-0.367,0.557-0.73,0.85-1.09c0.039-0.04,0.117-0.133,0.23-0.28
		c0.113-0.146,0.236-0.29,0.369-0.43s0.264-0.25,0.391-0.33c0.127-0.08,0.223-0.073,0.289,0.02c0.066,0.107,0.061,0.257-0.02,0.45
		s-0.184,0.394-0.311,0.6s-0.26,0.4-0.4,0.58c-0.139,0.18-0.236,0.303-0.289,0.37c-0.254,0.347-0.523,0.677-0.811,0.99
		c-0.287,0.313-0.576,0.624-0.869,0.93c-0.281,0.293-0.59,0.627-0.93,1c-0.34,0.374-0.711,0.71-1.111,1.01
		c-0.398,0.3-0.82,0.523-1.26,0.67C157.426,20.753,156.973,20.747,156.506,20.586z"/>
	<path fill="#E64722" d="M172.186,15.086c0.16-0.133,0.293-0.14,0.4-0.02c0.053,0.067,0.072,0.144,0.061,0.23
		c-0.014,0.087-0.045,0.177-0.09,0.27c-0.047,0.094-0.102,0.18-0.16,0.26c-0.061,0.08-0.111,0.146-0.15,0.2
		c-0.107,0.187-0.225,0.36-0.35,0.52c-0.127,0.16-0.264,0.327-0.41,0.5c-0.281,0.347-0.564,0.693-0.85,1.04
		c-0.287,0.347-0.584,0.687-0.891,1.02c-0.268,0.307-0.566,0.6-0.9,0.88c-0.334,0.28-0.699,0.474-1.1,0.58
		c-0.268,0.067-0.561,0.074-0.881,0.02c-0.32-0.053-0.572-0.2-0.76-0.44c-0.174-0.213-0.256-0.486-0.25-0.82
		c0.008-0.333,0.043-0.627,0.109-0.88c0.055-0.24,0.074-0.37,0.061-0.39s-0.08,0.043-0.199,0.19c-0.055,0.053-0.137,0.144-0.25,0.27
		c-0.113,0.127-0.23,0.243-0.35,0.35c-0.361,0.387-0.721,0.72-1.08,1c-0.201,0.146-0.408,0.297-0.621,0.45
		c-0.213,0.153-0.447,0.257-0.699,0.31c-0.146,0.027-0.311,0.043-0.49,0.05s-0.344-0.016-0.49-0.07
		c-0.066-0.026-0.131-0.053-0.189-0.08c-0.061-0.026-0.123-0.06-0.191-0.1c-0.119-0.066-0.223-0.18-0.309-0.34
		c-0.088-0.16-0.145-0.307-0.17-0.44c-0.08-0.333-0.09-0.66-0.031-0.98c0.061-0.32,0.158-0.637,0.291-0.95
		c0.133-0.313,0.287-0.613,0.459-0.9c0.174-0.287,0.34-0.57,0.5-0.85c0.188-0.306,0.381-0.616,0.58-0.93
		c0.201-0.313,0.395-0.63,0.58-0.95c0.174-0.28,0.35-0.56,0.531-0.84c0.18-0.28,0.342-0.573,0.49-0.88
		c0.066-0.12,0.123-0.237,0.17-0.35c0.045-0.113,0.082-0.237,0.109-0.37c0.039-0.187,0.063-0.36,0.07-0.52
		c0.006-0.16,0.123-0.267,0.35-0.32c0.174-0.04,0.344-0.047,0.51-0.02s0.336,0.04,0.51,0.04c0.053,0,0.133-0.01,0.24-0.03
		s0.213-0.033,0.32-0.04c0.105-0.006,0.203,0.003,0.289,0.03c0.088,0.027,0.145,0.08,0.17,0.16c0.066,0.147,0.07,0.327,0.012,0.54
		c-0.061,0.213-0.117,0.394-0.172,0.54c-0.133,0.347-0.293,0.677-0.479,0.99c-0.188,0.313-0.373,0.624-0.561,0.93
		c-0.213,0.347-0.416,0.694-0.609,1.04c-0.193,0.347-0.404,0.694-0.631,1.04c-0.227,0.347-0.449,0.69-0.67,1.03
		c-0.221,0.34-0.424,0.697-0.609,1.07c-0.066,0.147-0.141,0.327-0.221,0.54c-0.08,0.213-0.072,0.394,0.02,0.54
		c0.121,0.187,0.277,0.247,0.471,0.18s0.396-0.18,0.609-0.34c0.213-0.16,0.406-0.333,0.58-0.52c0.174-0.187,0.301-0.32,0.381-0.4
		c0.119-0.12,0.227-0.25,0.32-0.39c0.092-0.14,0.193-0.276,0.299-0.41c0.188-0.227,0.367-0.46,0.541-0.7
		c0.172-0.24,0.346-0.48,0.52-0.72c0.227-0.307,0.453-0.653,0.68-1.04c0.32-0.507,0.641-1.023,0.961-1.55
		c0.32-0.526,0.572-1.083,0.76-1.67c0.025-0.093,0.057-0.18,0.09-0.26c0.033-0.08,0.057-0.133,0.07-0.16
		c0.039-0.093,0.072-0.167,0.1-0.22c0.027-0.053,0.086-0.106,0.18-0.16c0.133-0.053,0.287-0.093,0.461-0.12
		c0.119-0.027,0.238-0.037,0.359-0.03c0.119,0.007,0.24,0.017,0.359,0.03c0.133,0.013,0.264,0.01,0.391-0.01s0.256-0.03,0.391-0.03
		c0.133,0,0.223,0.03,0.27,0.09s0.07,0.134,0.07,0.22c0,0.087-0.014,0.184-0.041,0.29c-0.027,0.107-0.053,0.2-0.08,0.28
		c-0.039,0.173-0.109,0.34-0.209,0.5c-0.1,0.16-0.197,0.32-0.291,0.48c-0.213,0.36-0.42,0.687-0.619,0.98
		c-0.348,0.507-0.664,1.034-0.951,1.58c-0.285,0.547-0.596,1.074-0.93,1.58c-0.307,0.467-0.559,0.967-0.76,1.5
		c-0.268,0.707-0.254,1.087,0.041,1.14c0.146,0.04,0.285,0.01,0.42-0.09c0.133-0.1,0.252-0.19,0.359-0.27
		c0.133-0.106,0.254-0.22,0.359-0.34c0.107-0.12,0.221-0.233,0.34-0.34c0.107-0.12,0.207-0.233,0.301-0.34
		c0.094-0.106,0.193-0.22,0.301-0.34c0.279-0.347,0.545-0.687,0.799-1.02c0.254-0.333,0.494-0.687,0.721-1.06
		c0.025-0.053,0.072-0.123,0.139-0.21C172.034,15.23,172.106,15.153,172.186,15.086z"/>
	<path fill="#E64722" d="M181.026,10.327c0.16,0.173,0.248,0.38,0.26,0.62c0.014,0.24-0.012,0.46-0.078,0.66
		c-0.041,0.133-0.07,0.264-0.092,0.39c-0.02,0.127-0.049,0.25-0.09,0.37c-0.053,0.146-0.105,0.29-0.16,0.43
		c-0.053,0.14-0.105,0.284-0.158,0.43c-0.094,0.28-0.205,0.547-0.33,0.8c-0.127,0.253-0.264,0.507-0.41,0.76
		c-0.348,0.56-0.707,1.1-1.08,1.62c-0.188,0.253-0.381,0.487-0.58,0.7c-0.201,0.213-0.395,0.434-0.58,0.66
		c-0.227,0.267-0.453,0.517-0.68,0.75c-0.229,0.233-0.475,0.457-0.74,0.67c-0.146,0.107-0.283,0.207-0.41,0.3
		c-0.127,0.094-0.264,0.187-0.41,0.28c-0.24,0.173-0.486,0.33-0.74,0.47c-0.254,0.14-0.514,0.247-0.779,0.32
		c-0.268,0.073-0.537,0.107-0.811,0.1s-0.557-0.07-0.85-0.19c-0.227-0.08-0.387-0.247-0.48-0.5c-0.107-0.253-0.16-0.546-0.16-0.88
		c-0.014-0.32,0.018-0.63,0.09-0.93c0.074-0.3,0.166-0.59,0.279-0.87c0.113-0.28,0.248-0.553,0.4-0.82
		c0.154-0.267,0.303-0.54,0.451-0.82c0.092-0.16,0.182-0.323,0.27-0.49c0.086-0.167,0.176-0.337,0.27-0.51
		c0.146-0.267,0.307-0.533,0.48-0.8s0.332-0.533,0.48-0.8c0.24-0.466,0.439-0.933,0.6-1.4c0.066-0.187,0.143-0.36,0.23-0.52
		c0.086-0.16,0.236-0.253,0.449-0.28c0.254-0.04,0.51-0.057,0.77-0.05c0.26,0.007,0.518,0.017,0.771,0.03
		c0.373,0,0.52,0.18,0.439,0.54c-0.041,0.2-0.111,0.383-0.211,0.55c-0.1,0.167-0.189,0.343-0.27,0.53
		c-0.146,0.333-0.32,0.654-0.52,0.96c-0.201,0.307-0.395,0.613-0.58,0.92c-0.201,0.347-0.404,0.693-0.609,1.04
		c-0.207,0.347-0.424,0.693-0.65,1.04c-0.107,0.173-0.215,0.343-0.32,0.51c-0.107,0.167-0.193,0.343-0.26,0.53
		c-0.094,0.214-0.184,0.437-0.27,0.67c-0.088,0.233-0.117,0.477-0.092,0.73c0.027,0.187,0.111,0.33,0.25,0.43
		c0.141,0.1,0.311,0.13,0.512,0.09c0.385-0.08,0.76-0.27,1.119-0.57c0.359-0.3,0.652-0.61,0.881-0.93
		c0.119-0.173,0.242-0.34,0.369-0.5c0.127-0.16,0.242-0.327,0.35-0.5c0.213-0.307,0.414-0.617,0.6-0.93
		c0.188-0.313,0.367-0.637,0.541-0.97c0.32-0.613,0.572-1.233,0.76-1.86c0.053-0.173,0.107-0.347,0.16-0.52
		c0.053-0.173,0.086-0.353,0.1-0.54c0.027-0.173,0.023-0.34-0.01-0.5c-0.033-0.16-0.057-0.32-0.07-0.48
		c0-0.106,0.031-0.223,0.09-0.35c0.061-0.126,0.123-0.23,0.191-0.31c0.146-0.147,0.336-0.243,0.568-0.29
		c0.234-0.047,0.443-0.01,0.631,0.11c0.027,0.027,0.047,0.043,0.061,0.05C180.979,10.283,181,10.3,181.026,10.327z"/>
	<path fill="#E64722" d="M192.506,10.646c0.227,0.08,0.373,0.23,0.441,0.45c0.066,0.22,0.086,0.43,0.059,0.63
		c-0.025,0.2-0.066,0.4-0.119,0.6c-0.055,0.2-0.107,0.393-0.16,0.58c-0.213,0.693-0.496,1.36-0.85,2
		c-0.354,0.64-0.758,1.247-1.211,1.82c-0.48,0.64-1.004,1.26-1.57,1.86s-1.184,1.12-1.85,1.56c-0.24,0.147-0.49,0.273-0.75,0.38
		c-0.26,0.107-0.529,0.173-0.811,0.2c-0.412,0.027-0.785-0.05-1.119-0.229c-0.334-0.18-0.553-0.477-0.66-0.89
		c-0.066-0.253-0.098-0.506-0.09-0.76c0.006-0.253,0.023-0.507,0.051-0.76c-0.24,0.347-0.49,0.677-0.75,0.99
		c-0.262,0.313-0.564,0.604-0.91,0.87c-0.307,0.227-0.66,0.42-1.061,0.58s-0.793,0.18-1.18,0.06c-0.014-0.013-0.027-0.02-0.041-0.02
		s-0.025-0.006-0.039-0.02c-0.307-0.133-0.52-0.36-0.641-0.68c-0.119-0.32-0.172-0.64-0.16-0.96c0-0.387,0.057-0.753,0.17-1.1
		s0.271-0.68,0.471-1c0.227-0.347,0.471-0.687,0.73-1.02c0.26-0.333,0.502-0.68,0.729-1.04c0.24-0.373,0.453-0.76,0.641-1.16
		s0.373-0.8,0.561-1.2c0.133-0.267,0.279-0.523,0.439-0.77s0.381-0.443,0.66-0.59c0.199-0.106,0.434-0.18,0.699-0.22
		c0.268-0.04,0.514-0.007,0.74,0.1c0.121,0.066,0.203,0.15,0.25,0.25c0.047,0.1,0.07,0.213,0.07,0.34
		c0,0.127-0.016,0.253-0.049,0.38c-0.035,0.127-0.07,0.237-0.111,0.33c-0.146,0.4-0.322,0.787-0.529,1.16
		c-0.207,0.373-0.424,0.74-0.65,1.1c-0.254,0.387-0.514,0.757-0.779,1.11c-0.268,0.354-0.527,0.723-0.781,1.11
		c-0.199,0.293-0.406,0.613-0.619,0.96s-0.326,0.707-0.34,1.08c-0.027,0.28,0.057,0.434,0.25,0.46c0.193,0.027,0.383-0.02,0.57-0.14
		c0.307-0.187,0.572-0.426,0.799-0.72s0.447-0.58,0.66-0.86c0.494-0.68,0.98-1.356,1.461-2.03c0.479-0.673,0.9-1.396,1.26-2.17
		c0.172-0.36,0.354-0.72,0.539-1.08c0.188-0.36,0.447-0.667,0.781-0.92c0.119-0.08,0.252-0.157,0.398-0.23
		c0.148-0.073,0.301-0.126,0.461-0.16c0.16-0.033,0.32-0.037,0.48-0.01s0.307,0.093,0.439,0.2c0.133,0.12,0.211,0.264,0.23,0.43
		c0.02,0.167,0.006,0.333-0.041,0.5c-0.047,0.167-0.113,0.333-0.199,0.5c-0.088,0.167-0.17,0.31-0.25,0.43
		c-0.428,0.694-0.873,1.364-1.34,2.01c-0.467,0.647-0.881,1.337-1.24,2.07c-0.053,0.107-0.143,0.277-0.27,0.51s-0.24,0.48-0.34,0.74
		c-0.102,0.26-0.16,0.507-0.182,0.74c-0.02,0.233,0.057,0.397,0.23,0.49c0.133,0.08,0.281,0.104,0.441,0.07
		c0.158-0.033,0.318-0.097,0.479-0.19s0.307-0.197,0.441-0.31c0.133-0.113,0.246-0.21,0.34-0.29c0.318-0.307,0.605-0.637,0.859-0.99
		c0.254-0.353,0.5-0.71,0.74-1.07c0.373-0.546,0.717-1.13,1.029-1.75c0.314-0.62,0.543-1.257,0.689-1.91
		c0.027-0.093,0.047-0.183,0.061-0.27c0.014-0.086,0.02-0.183,0.02-0.29c0-0.227-0.02-0.463-0.059-0.71
		c-0.041-0.247,0.012-0.477,0.16-0.69c0.146-0.2,0.33-0.343,0.549-0.43C192.057,10.57,192.28,10.566,192.506,10.646z"/>
	<path fill="#E64722" d="M190.346,20.646c-0.32-0.066-0.553-0.227-0.699-0.48c-0.107-0.213-0.15-0.437-0.131-0.67
		s0.084-0.443,0.189-0.63c0.066-0.107,0.146-0.21,0.24-0.31s0.193-0.183,0.301-0.25c0.105-0.067,0.223-0.113,0.35-0.14
		c0.127-0.026,0.25-0.033,0.371-0.02c0.133,0.014,0.242,0.077,0.328,0.19c0.088,0.113,0.145,0.23,0.172,0.35
		c0.012,0.067,0.012,0.13,0,0.19c-0.014,0.06-0.021,0.124-0.021,0.19c0.014,0.12,0.057,0.187,0.131,0.2
		c0.072,0.013,0.156,0,0.25-0.04s0.186-0.093,0.279-0.16c0.094-0.066,0.16-0.113,0.201-0.14c0.133-0.093,0.256-0.193,0.369-0.3
		c0.113-0.106,0.223-0.213,0.33-0.32s0.217-0.217,0.33-0.33s0.209-0.243,0.289-0.39c0.094-0.146,0.146-0.296,0.16-0.45
		s0.021-0.31,0.021-0.47c0-0.533,0.033-1.063,0.1-1.59s0.16-1.043,0.279-1.55c0.014-0.026,0.02-0.053,0.02-0.08v-0.08
		c-0.119,0.067-0.217,0.163-0.289,0.29c-0.074,0.126-0.145,0.243-0.211,0.35c-0.105,0.187-0.213,0.367-0.318,0.54
		c-0.107,0.173-0.229,0.347-0.361,0.52c-0.094,0.12-0.207,0.27-0.34,0.45c-0.133,0.18-0.293,0.27-0.48,0.27
		c-0.119,0-0.172-0.067-0.16-0.2c0.014-0.133,0.033-0.233,0.061-0.3c0.08-0.173,0.184-0.327,0.311-0.46s0.242-0.273,0.35-0.42
		c0.174-0.24,0.34-0.483,0.5-0.73c0.16-0.246,0.313-0.496,0.461-0.75c0.146-0.227,0.293-0.46,0.439-0.7
		c0.146-0.24,0.273-0.487,0.379-0.74c0.027-0.04,0.045-0.09,0.051-0.15s0.023-0.103,0.051-0.13c0.08-0.066,0.182-0.1,0.309-0.1
		s0.244,0,0.352,0c0.146,0,0.293-0.006,0.439-0.02c0.146-0.013,0.293-0.033,0.439-0.06c0.08-0.013,0.174-0.03,0.281-0.05
		c0.105-0.02,0.199-0.003,0.279,0.05c0.08,0.04,0.123,0.1,0.129,0.18c0.008,0.08,0,0.167-0.02,0.26
		c-0.02,0.094-0.049,0.184-0.09,0.27c-0.039,0.087-0.066,0.157-0.08,0.21c-0.133,0.333-0.26,0.667-0.379,1
		c-0.121,0.333-0.207,0.674-0.262,1.02c0,0.04-0.01,0.114-0.029,0.22c-0.02,0.107-0.033,0.204-0.039,0.29
		c-0.008,0.087,0.002,0.144,0.029,0.17c0.027,0.027,0.08-0.013,0.16-0.12c0.08-0.106,0.162-0.207,0.25-0.3
		c0.086-0.093,0.176-0.193,0.27-0.3c0.387-0.453,0.764-0.913,1.131-1.38c0.365-0.466,0.783-0.886,1.25-1.26
		c0.266-0.227,0.547-0.393,0.84-0.5c0.186-0.067,0.402-0.106,0.65-0.12c0.246-0.013,0.463,0.053,0.648,0.2
		c0.16,0.12,0.244,0.283,0.25,0.49c0.008,0.207-0.025,0.423-0.1,0.65c-0.072,0.227-0.174,0.437-0.299,0.63
		c-0.127,0.193-0.244,0.336-0.352,0.43c-0.133,0.107-0.25,0.164-0.35,0.17c-0.1,0.007-0.203-0.063-0.311-0.21
		c-0.105-0.12-0.223-0.2-0.35-0.24s-0.256-0.05-0.389-0.03c-0.135,0.02-0.268,0.057-0.4,0.11c-0.135,0.053-0.26,0.106-0.381,0.16
		c-0.506,0.28-0.949,0.654-1.33,1.12c-0.379,0.467-0.742,0.927-1.09,1.38c-0.199,0.253-0.307,0.503-0.32,0.75
		c-0.014,0.247-0.02,0.523-0.02,0.83c0.014,0.213,0.023,0.434,0.029,0.66c0.008,0.227,0.051,0.433,0.131,0.62
		c0.066,0.2,0.16,0.39,0.279,0.57c0.121,0.18,0.301,0.257,0.541,0.23c0.24-0.013,0.453-0.083,0.641-0.21
		c0.186-0.126,0.373-0.263,0.559-0.41c0.254-0.2,0.48-0.42,0.68-0.66c0.201-0.24,0.395-0.487,0.58-0.74
		c0.215-0.267,0.404-0.546,0.57-0.84c0.168-0.293,0.363-0.567,0.59-0.82c0.041-0.04,0.098-0.093,0.17-0.16
		c0.074-0.067,0.146-0.113,0.221-0.14c0.072-0.026,0.137-0.03,0.189-0.01s0.074,0.097,0.061,0.23c-0.027,0.187-0.104,0.36-0.23,0.52
		c-0.127,0.16-0.242,0.313-0.35,0.46c-0.268,0.347-0.527,0.687-0.779,1.02c-0.254,0.333-0.514,0.674-0.781,1.02
		c-0.094,0.107-0.189,0.207-0.289,0.3s-0.189,0.193-0.27,0.3c-0.188,0.24-0.4,0.463-0.641,0.67c-0.24,0.207-0.486,0.384-0.74,0.53
		c-0.146,0.093-0.311,0.164-0.49,0.21c-0.18,0.047-0.344,0.077-0.49,0.09c-0.16,0.027-0.322,0.027-0.49,0
		c-0.166-0.026-0.322-0.08-0.469-0.16c-0.307-0.173-0.543-0.403-0.711-0.69c-0.166-0.286-0.297-0.59-0.389-0.91
		c-0.014-0.04-0.031-0.106-0.051-0.2c-0.02-0.093-0.051-0.153-0.09-0.18c-0.027-0.027-0.043-0.03-0.051-0.01
		c-0.006,0.02-0.023,0.043-0.049,0.07c-0.121,0.147-0.244,0.287-0.371,0.42s-0.25,0.273-0.369,0.42
		c-0.146,0.16-0.293,0.317-0.439,0.47c-0.148,0.154-0.309,0.29-0.48,0.41c-0.188,0.133-0.385,0.244-0.59,0.33
		c-0.207,0.087-0.424,0.137-0.65,0.15c-0.066,0-0.133,0-0.201,0C190.479,20.667,190.413,20.66,190.346,20.646z"/>
	<path fill="#E64722" d="M209.567,10.747c0.16-0.013,0.279,0.007,0.359,0.06s0.121,0.167,0.121,0.34c0,0.187-0.031,0.374-0.09,0.56
		c-0.061,0.187-0.145,0.354-0.25,0.5c-0.135,0.213-0.264,0.42-0.391,0.62c-0.127,0.2-0.258,0.407-0.391,0.62l-0.779,1.32
		c-0.227,0.387-0.453,0.773-0.68,1.16c-0.227,0.387-0.461,0.773-0.701,1.16c-0.238,0.36-0.482,0.72-0.729,1.08
		c-0.248,0.36-0.479,0.733-0.691,1.12c-0.186,0.32-0.365,0.64-0.539,0.96c-0.174,0.32-0.354,0.633-0.541,0.939
		c-0.332,0.521-0.684,1.03-1.049,1.53c-0.367,0.5-0.764,0.963-1.189,1.391c-0.428,0.426-0.889,0.813-1.381,1.159
		c-0.494,0.347-1.041,0.641-1.641,0.881c-0.387,0.146-0.779,0.272-1.18,0.38c-0.4,0.106-0.813,0.18-1.24,0.22
		c-0.199,0.026-0.402,0.043-0.609,0.05s-0.416-0.003-0.631-0.03c-0.025,0-0.105-0.01-0.24-0.029c-0.133-0.021-0.27-0.044-0.408-0.07
		c-0.141-0.027-0.268-0.057-0.381-0.09s-0.17-0.07-0.17-0.11v0.04c-0.188-0.066-0.35-0.18-0.49-0.34s-0.256-0.327-0.35-0.5
		c-0.121-0.227-0.16-0.477-0.121-0.75c0.041-0.273,0.141-0.517,0.301-0.73c0.16-0.213,0.359-0.366,0.6-0.46
		c0.24-0.093,0.494-0.073,0.76,0.061c0.188,0.093,0.334,0.227,0.441,0.399c0.105,0.174,0.133,0.367,0.08,0.58
		c-0.027,0.146-0.102,0.307-0.221,0.48c-0.119,0.173-0.16,0.34-0.119,0.5c0.053,0.213,0.205,0.347,0.459,0.4
		c0.254,0.053,0.467,0.079,0.641,0.079c0.266,0,0.537-0.04,0.809-0.119c0.273-0.08,0.537-0.19,0.791-0.33
		c0.254-0.141,0.494-0.297,0.721-0.471c0.227-0.173,0.432-0.347,0.619-0.52c0.146-0.134,0.287-0.271,0.42-0.41
		s0.26-0.283,0.381-0.43c0.346-0.414,0.672-0.834,0.979-1.261s0.613-0.859,0.92-1.3c0.201-0.307,0.404-0.609,0.611-0.91
		c0.205-0.3,0.369-0.623,0.49-0.97c0-0.013,0.006-0.063,0.02-0.15c0.014-0.086,0.014-0.123,0-0.11
		c-0.24,0.147-0.447,0.333-0.621,0.56c-0.172,0.227-0.393,0.413-0.66,0.56c-0.307,0.16-0.652,0.27-1.039,0.33
		c-0.387,0.06-0.754,0.036-1.1-0.07c-0.188-0.053-0.34-0.146-0.461-0.28c-0.119-0.133-0.209-0.287-0.27-0.46
		s-0.098-0.354-0.109-0.54c-0.014-0.187-0.014-0.367,0-0.54c0.025-0.28,0.092-0.547,0.199-0.8c0.107-0.253,0.232-0.506,0.381-0.76
		c0.24-0.44,0.5-0.873,0.779-1.3c0.279-0.426,0.561-0.853,0.84-1.28s0.553-0.856,0.82-1.29c0.266-0.433,0.514-0.883,0.74-1.35
		c0.053-0.12,0.1-0.25,0.141-0.39c0.039-0.14,0.086-0.273,0.139-0.4c0.053-0.126,0.127-0.236,0.221-0.33s0.219-0.153,0.379-0.18
		c0.188-0.027,0.371-0.027,0.551,0s0.363,0.033,0.551,0.02c0.172-0.027,0.332-0.027,0.479,0s0.248,0.133,0.301,0.32
		c0.066,0.227,0.043,0.434-0.07,0.62c-0.113,0.187-0.223,0.374-0.33,0.56c-0.334,0.533-0.666,1.063-1,1.59
		c-0.334,0.527-0.66,1.063-0.98,1.61c-0.172,0.267-0.34,0.537-0.5,0.81c-0.16,0.273-0.318,0.543-0.479,0.81
		c-0.148,0.227-0.297,0.454-0.451,0.68c-0.152,0.227-0.277,0.473-0.369,0.74c-0.08,0.2-0.107,0.367-0.08,0.5
		c0.025,0.134,0.09,0.23,0.189,0.29s0.227,0.087,0.381,0.08c0.152-0.006,0.309-0.05,0.469-0.13c0.373-0.187,0.703-0.443,0.99-0.77
		s0.564-0.643,0.83-0.95c0.188-0.227,0.373-0.473,0.561-0.74c0.307-0.44,0.609-0.887,0.91-1.34c0.299-0.453,0.59-0.913,0.869-1.38
		c0.268-0.44,0.531-0.886,0.791-1.34c0.26-0.453,0.449-0.933,0.57-1.44c0.053-0.173,0.133-0.29,0.238-0.35
		c0.107-0.06,0.248-0.097,0.42-0.11c0.24-0.013,0.48-0.02,0.721-0.02S209.313,10.773,209.567,10.747z"/>
	<path fill="#E64722" d="M206.127,20.586c-0.027-0.053-0.033-0.12-0.02-0.2c0.012-0.12,0.057-0.243,0.129-0.37
		c0.074-0.126,0.156-0.237,0.25-0.33c0.107-0.106,0.201-0.213,0.281-0.32c0.08-0.107,0.172-0.213,0.279-0.32
		c0.268-0.267,0.504-0.557,0.711-0.87c0.205-0.313,0.436-0.603,0.689-0.87c0.492-0.547,1.039-1.06,1.641-1.54
		c0.398-0.32,0.816-0.603,1.25-0.85c0.432-0.247,0.869-0.483,1.309-0.71c0.268-0.146,0.531-0.296,0.791-0.45
		c0.26-0.153,0.523-0.29,0.789-0.41c0.16-0.067,0.326-0.124,0.5-0.17c0.174-0.046,0.32-0.136,0.439-0.27
		c0.041-0.053,0.051-0.09,0.031-0.11s-0.057-0.017-0.109,0.01c-0.08,0.027-0.158,0.053-0.23,0.08c-0.074,0.027-0.15,0.04-0.23,0.04
		c-0.107,0.014-0.207,0.017-0.301,0.01c-0.092-0.006-0.186-0.01-0.279-0.01c-0.107,0-0.217,0-0.33,0s-0.23-0.006-0.35-0.02
		c-0.254-0.013-0.5-0.033-0.74-0.06s-0.486-0.027-0.74,0c-0.387,0.04-0.727,0.14-1.02,0.3c-0.133,0.067-0.258,0.16-0.371,0.28
		c-0.113,0.12-0.242,0.207-0.389,0.26c-0.146,0.04-0.238-0.006-0.27-0.14c-0.035-0.133-0.023-0.253,0.029-0.36
		c0.119-0.227,0.264-0.433,0.43-0.62c0.166-0.187,0.33-0.373,0.49-0.56c0.16-0.173,0.322-0.343,0.49-0.51
		c0.166-0.167,0.363-0.297,0.59-0.39c0.561-0.24,1.146-0.347,1.76-0.32s1.207,0.093,1.779,0.2c0.32,0.054,0.541,0.087,0.66,0.1
		c0.121,0.014,0.268,0.007,0.441-0.02c0.146-0.026,0.275-0.046,0.389-0.06c0.113-0.013,0.236-0.053,0.371-0.12
		c0.105-0.04,0.219-0.087,0.34-0.14c0.119-0.053,0.232-0.047,0.34,0.02c0.146,0.067,0.213,0.15,0.199,0.25s-0.063,0.2-0.15,0.3
		c-0.086,0.1-0.189,0.193-0.309,0.28c-0.121,0.087-0.207,0.15-0.26,0.19c-0.32,0.267-0.613,0.56-0.881,0.88s-0.533,0.647-0.801,0.98
		c-0.146,0.2-0.297,0.4-0.449,0.6c-0.154,0.2-0.303,0.394-0.449,0.58c-0.121,0.146-0.24,0.287-0.361,0.42
		c-0.119,0.133-0.24,0.26-0.359,0.38c-0.373,0.36-0.77,0.66-1.189,0.9c-0.42,0.24-0.85,0.494-1.291,0.76
		c-0.266,0.16-0.549,0.3-0.85,0.42s-0.59,0.253-0.869,0.4c-0.215,0.107-0.451,0.19-0.711,0.25s-0.463,0.19-0.609,0.39
		c0.16-0.093,0.322-0.153,0.49-0.18c0.166-0.026,0.336-0.037,0.51-0.03c0.172,0.007,0.346,0.027,0.52,0.06s0.346,0.063,0.52,0.09
		c0.307,0.053,0.617,0.117,0.93,0.19c0.314,0.073,0.623,0.117,0.932,0.13c0.307,0.014,0.602-0.017,0.889-0.09s0.564-0.23,0.83-0.47
		c0.133-0.12,0.26-0.247,0.381-0.38c0.119-0.133,0.24-0.273,0.359-0.42c0.146-0.16,0.273-0.327,0.381-0.5
		c0.105-0.173,0.219-0.347,0.34-0.52c0.025-0.026,0.066-0.07,0.119-0.13s0.113-0.117,0.18-0.17s0.131-0.087,0.191-0.1
		c0.059-0.013,0.109,0.007,0.148,0.06c0.041,0.08,0.047,0.173,0.021,0.28c-0.027,0.107-0.074,0.217-0.141,0.33
		s-0.137,0.217-0.211,0.31c-0.072,0.093-0.129,0.167-0.17,0.22c-0.373,0.454-0.766,0.907-1.18,1.36
		c-0.227,0.24-0.459,0.473-0.699,0.7c-0.24,0.227-0.498,0.427-0.77,0.6c-0.273,0.173-0.564,0.317-0.871,0.43s-0.633,0.176-0.98,0.19
		c-0.227,0.013-0.445,0.01-0.66-0.01c-0.213-0.021-0.426-0.043-0.639-0.07c-0.414-0.066-0.816-0.153-1.211-0.26
		c-0.393-0.107-0.803-0.14-1.229-0.1c-0.281,0.04-0.541,0.12-0.781,0.24c-0.094,0.054-0.213,0.097-0.359,0.13
		C206.301,20.669,206.194,20.653,206.127,20.586z"/>
</g>
</svg>
